<?xml version="1.0"?>
<svg width="749" height="500" xmlns="http://www.w3.org/2000/svg" xmlns:svg="http://www.w3.org/2000/svg">
 <defs>
  <clipPath id="clip0_405_358">
   <rect fill="white" height="500" id="svg_1" width="749"/>
  </clipPath>
 </defs>
 <g class="layer">
  <title>Layer 1</title>
  <g clip-path="url(#clip0_405_358)" id="svg_2" opacity="0.65">
   <mask height="501" id="mask0_405_358" maskUnits="userSpaceOnUse" width="751" x="-2" y="0">
    <path d="m748.72,0.11l-750,0l0,500l750,0l0,-500z" fill="white" id="svg_3"/>
   </mask>
   <g id="svg_4" mask="url(#mask0_405_358)">
    <path d="m85.63,367.3c-9.69,0 -17.57,-7.88 -17.57,-17.57c0,-9.69 7.88,-17.57 17.57,-17.57c9.69,0 17.57,7.88 17.57,17.57c0,9.69 -7.88,17.57 -17.57,17.57z" fill="#6B6B6A" id="svg_5"/>
    <path d="m712.72,455.77l-207.09,0l0,44.34l207.09,0l0,-44.34z" fill="#383838" id="svg_6"/>
    <path d="m729.06,500.1l0,-98.34l-68,0l0,98.34l68,0z" fill="#929493" id="svg_7"/>
    <path d="m748.72,480.86l-39.02,0l0,19.25l39.02,0l0,-19.25z" fill="white" id="svg_8"/>
    <path d="m615.66,193.93l-160.07,0l0,160.07l160.07,0l0,-160.07z" fill="#383838" id="svg_9"/>
    <path d="m66.03,500.22l93.85,-175.97l93.85,175.97l-187.7,0z" fill="#383838" id="svg_10"/>
    <path d="m505.69,140.41l-0.74,0l0,161.02l0.74,0l0,-161.02z" fill="#6B6B6A" id="svg_11"/>
    <path d="m529.43,140.41l-0.74,0l0,161.02l0.74,0l0,-161.02z" fill="#6B6B6A" id="svg_12"/>
    <path d="m553.16,140.41l-0.74,0l0,161.02l0.74,0l0,-161.02z" fill="#6B6B6A" id="svg_13"/>
    <path d="m576.9,140.41l-0.74,0l0,161.02l0.74,0l0,-161.02z" fill="#6B6B6A" id="svg_14"/>
    <path d="m600.64,140.41l-0.74,0l0,161.02l0.74,0l0,-161.02z" fill="#6B6B6A" id="svg_15"/>
    <path d="m624.38,140.41l-0.74,0l0,161.02l0.74,0l0,-161.02z" fill="#6B6B6A" id="svg_16"/>
    <path d="m645.17,161.21l-161.02,0l0,0.74l161.02,0l0,-0.74z" fill="#6B6B6A" id="svg_17"/>
    <path d="m645.17,184.95l-161.02,0l0,0.74l161.02,0l0,-0.74z" fill="#6B6B6A" id="svg_18"/>
    <path d="m645.17,208.68l-161.02,0l0,0.74l161.02,0l0,-0.74z" fill="#6B6B6A" id="svg_19"/>
    <path d="m645.17,232.42l-161.02,0l0,0.74l161.02,0l0,-0.74z" fill="#6B6B6A" id="svg_20"/>
    <path d="m645.17,256.16l-161.02,0l0,0.74l161.02,0l0,-0.74z" fill="#6B6B6A" id="svg_21"/>
    <path d="m645.17,279.9l-161.02,0l0,0.74l161.02,0l0,-0.74z" fill="#6B6B6A" id="svg_22"/>
    <path d="m116.94,435.15l-0.74,0l0,161.02l0.74,0l0,-161.02z" fill="#6B6B6A" id="svg_23"/>
    <path d="m140.68,435.15l-0.74,0l0,161.02l0.74,0l0,-161.02z" fill="#6B6B6A" id="svg_24"/>
    <path d="m164.42,435.15l-0.74,0l0,161.02l0.74,0l0,-161.02z" fill="#6B6B6A" id="svg_25"/>
    <path d="m188.15,435.15l-0.74,0l0,161.02l0.74,0l0,-161.02z" fill="#6B6B6A" id="svg_26"/>
    <path d="m211.89,435.15l-0.74,0l0,161.02l0.74,0l0,-161.02z" fill="#6B6B6A" id="svg_27"/>
    <path d="m235.63,435.15l-0.74,0l0,161.02l0.74,0l0,-161.02z" fill="#6B6B6A" id="svg_28"/>
    <path d="m256.42,455.94l-161.02,0l0,0.74l161.02,0l0,-0.74z" fill="#6B6B6A" id="svg_29"/>
    <path d="m256.42,479.68l-161.02,0l0,0.74l161.02,0l0,-0.74z" fill="#6B6B6A" id="svg_30"/>
    <path d="m634.51,140.4c48.16,0 87.2,-39.04 87.2,-87.2c0,-48.16 -39.04,-87.2 -87.2,-87.2c-48.16,0 -87.2,39.04 -87.2,87.2c0,48.16 39.04,87.2 87.2,87.2z" fill="#383838" id="svg_31"/>
    <path d="m173.7,263.12c32.31,0 58.51,-26.2 58.51,-58.51c0,-32.31 -26.2,-58.51 -58.51,-58.51c-32.31,0 -58.51,26.2 -58.51,58.51c0,32.31 26.2,58.51 58.51,58.51z" fill="#383838" id="svg_32"/>
    <path d="m374.37,0.11l-198.46,0l0,29.2l198.46,0l0,-29.2z" fill="#383838" id="svg_33"/>
    <path d="m62.53,221.04l-24.76,24.76l0,-1.42l24.76,-24.76l0,1.42z" fill="#939393" id="svg_34"/>
    <path d="m62.53,233.85l-24.76,24.76l0,-1.41l24.76,-24.76l0,1.41z" fill="#939393" id="svg_35"/>
    <path d="m62.53,246.66l-24.76,24.76l0,-1.41l24.76,-24.76l0,1.41z" fill="#939393" id="svg_36"/>
    <path d="m62.53,259.48l-24.76,24.76l0,-1.42l24.76,-24.76l0,1.42z" fill="#939393" id="svg_37"/>
    <path d="m62.53,272.29l-24.76,24.76l0,-1.41l24.76,-24.76l0,1.41z" fill="#939393" id="svg_38"/>
    <path d="m62.53,285.1l-24.76,24.76l0,-1.41l24.76,-24.76l0,1.41z" fill="#939393" id="svg_39"/>
    <path d="m62.53,297.92l-24.76,24.76l0,-1.42l24.76,-24.76l0,1.42z" fill="#939393" id="svg_40"/>
    <path d="m656.14,94.47l24.76,24.76l0,-1.41l-24.76,-24.76l0,1.41z" fill="#F2F2F2" id="svg_41"/>
    <path d="m656.14,107.28l24.76,24.76l0,-1.41l-24.76,-24.76l0,1.41z" fill="#F2F2F2" id="svg_42"/>
    <path d="m656.14,120.1l24.76,24.76l0,-1.42l-24.76,-24.76l0,1.42z" fill="#F2F2F2" id="svg_43"/>
    <path d="m656.14,132.91l24.76,24.76l0,-1.41l-24.76,-24.76l0,1.41z" fill="#F2F2F2" id="svg_44"/>
    <path d="m656.14,145.72l24.76,24.76l0,-1.41l-24.76,-24.76l0,1.41z" fill="#F2F2F2" id="svg_45"/>
    <path d="m656.14,158.54l24.76,24.76l0,-1.42l-24.76,-24.76l0,1.42z" fill="#F2F2F2" id="svg_46"/>
    <path d="m656.14,171.35l24.76,24.76l0,-1.42l-24.76,-24.75l0,1.41z" fill="#F2F2F2" id="svg_47"/>
    <path d="m656.14,184.16l24.76,24.76l0,-1.41l-24.76,-24.76l0,1.41z" fill="#F2F2F2" id="svg_48"/>
    <path d="m656.14,196.98l24.76,24.75l0,-1.41l-24.76,-24.76l0,1.42z" fill="#F2F2F2" id="svg_49"/>
    <path d="m656.14,209.79l24.76,24.76l0,-1.42l-24.76,-24.76l0,1.42z" fill="#F2F2F2" id="svg_50"/>
    <path d="m656.14,222.6l24.76,24.76l0,-1.41l-24.76,-24.76l0,1.41z" fill="#F2F2F2" id="svg_51"/>
    <path d="m656.14,235.41l24.76,24.76l0,-1.41l-24.76,-24.76l0,1.41z" fill="#F2F2F2" id="svg_52"/>
    <path d="m656.14,248.23l24.76,24.76l0,-1.42l-24.76,-24.76l0,1.42z" fill="#F2F2F2" id="svg_53"/>
    <path d="m656.14,261.04l24.76,24.76l0,-1.41l-24.76,-24.76l0,1.41z" fill="#F2F2F2" id="svg_54"/>
    <path d="m290.67,268.76l-53.09,-84.92l-79.24,108.78l132.32,-23.85l0.01,-0.01zm-2.1,-1.48l-55.89,-24.71l5.23,-56.33l50.65,81.03l0.01,0.01zm-51.68,-80.79l-5.22,56.12l-70.17,47.3l75.38,-103.41l0.01,-0.01zm-75.21,104.5l70.52,-47.54l55.96,24.74l-126.49,22.8l0.01,0z" fill="white" id="svg_55"/>
    <path d="m117.26,60.25c0,-0.55 -0.45,-1 -1,-1l-60.6,0c-0.13,0 -0.26,0.03 -0.38,0.08c-0.12,0.05 -0.23,0.12 -0.33,0.22l-30.3,30.3c-0.19,0.19 -0.29,0.44 -0.29,0.71l0,60.6c0,0.13 0.03,0.26 0.08,0.38c0.1,0.24 0.3,0.44 0.54,0.54c0.12,0.05 0.25,0.08 0.38,0.08l60.6,0c0.27,0 0.52,-0.11 0.71,-0.29l30.3,-30.3c0.09,-0.09 0.17,-0.2 0.22,-0.33c0.05,-0.12 0.08,-0.25 0.08,-0.38l0,-60.6l-0.01,-0.01zm-2,59.6l-58.6,0l0,-58.6l58.6,0l0,58.6zm-42.97,30.3l28.3,-28.3l6.89,0l-28.3,28.3l-6.89,0zm-7.6,0l28.3,-28.3l6.89,0l-28.3,28.3l-6.89,0zm-7.6,0l28.3,-28.3l6.89,0l-28.3,28.3l-6.89,0zm-7.6,0l28.3,-28.3l6.89,0l-28.3,28.3l-6.89,0zm-7.6,0l28.3,-28.3l6.89,0l-28.3,28.3l-6.89,0zm-7.6,0l28.3,-28.3l6.89,0l-28.3,28.3l-6.89,0zm-6.54,0l28.3,-28.3l5.83,0l-28.3,28.3l-5.83,0zm-1.41,-45.34l28.3,-28.3l0,6.91l-28.3,28.3l0,-6.91zm0,7.62l28.3,-28.3l0,6.91l-28.3,28.3l0,-6.91zm0,7.62l28.3,-28.3l0,6.91l-28.3,28.3l0,-6.91zm0,7.62l28.3,-28.3l0,6.91l-28.3,28.3l0,-6.91zm0,7.62l28.3,-28.3l0,6.91l-28.3,28.3l0,-6.91zm28.3,-59.47l-28.3,28.3l0,-6.91l28.3,-28.3l0,6.91zm-28.3,67.09l28.3,-28.3l0,5.85l-28.3,28.3l0,-5.85zm28.3,-80.22l0,5.52l-28.3,28.3l0,-5.52l28.3,-28.3zm30.88,87.48l-5.66,0l28.3,-28.3l5.66,0l-28.3,28.3z" fill="#E7E7E7" id="svg_56"/>
    <path d="m698.2,121.18c-0.55,0 -1,0.45 -1,1l0,60.6c0,0.13 0.03,0.26 0.08,0.38c0.05,0.12 0.12,0.23 0.22,0.33l30.3,30.3c0.19,0.19 0.44,0.29 0.71,0.29l60.6,0c0.13,0 0.26,-0.03 0.38,-0.08c0.24,-0.1 0.44,-0.3 0.54,-0.54c0.05,-0.12 0.08,-0.25 0.08,-0.38l0,-60.6c0,-0.27 -0.11,-0.52 -0.29,-0.71l-30.3,-30.3c-0.09,-0.09 -0.2,-0.17 -0.33,-0.22c-0.12,-0.05 -0.25,-0.08 -0.38,-0.08l-60.6,0l-0.01,0.01zm59.6,2l0,58.6l-58.6,0l0,-58.6l58.6,0zm30.3,42.97l-28.3,-28.3l0,-6.89l28.3,28.3l0,6.89zm0,7.6l-28.3,-28.3l0,-6.89l28.3,28.3l0,6.89zm0,7.6l-28.3,-28.3l0,-6.89l28.3,28.3l0,6.89zm0,7.6l-28.3,-28.3l0,-6.89l28.3,28.3l0,6.89zm0,7.6l-28.3,-28.3l0,-6.89l28.3,28.3l0,6.89zm0,7.6l-28.3,-28.3l0,-6.89l28.3,28.3l0,6.89zm0,6.54l-28.3,-28.3l0,-5.83l28.3,28.3l0,5.83zm-45.34,1.41l-28.3,-28.3l6.91,0l28.3,28.3l-6.91,0zm7.62,0l-28.3,-28.3l6.91,0l28.3,28.3l-6.91,0zm7.62,0l-28.3,-28.3l6.91,0l28.3,28.3l-6.91,0zm7.62,0l-28.3,-28.3l6.91,0l28.3,28.3l-6.91,0zm7.62,0l-28.3,-28.3l6.91,0l28.3,28.3l-6.91,0zm-59.47,-28.3l28.3,28.3l-6.91,0l-28.3,-28.3l6.91,0zm67.09,28.3l-28.3,-28.3l5.85,0l28.3,28.3l-5.85,0zm-80.22,-28.3l5.52,0l28.3,28.3l-5.52,0l-28.3,-28.3zm87.48,-30.88l0,5.66l-28.3,-28.3l0,-5.66l28.3,28.3z" fill="#939393" id="svg_57"/>
    <path d="m64.54,18.18c0,1 0.81,1.81 1.81,1.81c1,0 1.81,-0.81 1.81,-1.81c0,-1 -0.81,-1.81 -1.81,-1.81c-1,0 -1.81,0.81 -1.81,1.81z" fill="#929493" id="svg_58"/>
    <path d="m84.5,18.18c0,1 0.81,1.81 1.81,1.81c1,0 1.81,-0.81 1.81,-1.81c0,-1 -0.81,-1.81 -1.81,-1.81c-1,0 -1.81,0.81 -1.81,1.81z" fill="#929493" id="svg_59"/>
    <path d="m104.46,18.18c0,1 0.81,1.81 1.81,1.81c1,0 1.81,-0.81 1.81,-1.81c0,-1 -0.81,-1.81 -1.81,-1.81c-1,0 -1.81,0.81 -1.81,1.81z" fill="#929493" id="svg_60"/>
    <path d="m124.42,18.18c0,1 0.81,1.81 1.81,1.81c1,0 1.81,-0.81 1.81,-1.81c0,-1 -0.81,-1.81 -1.81,-1.81c-1,0 -1.81,0.81 -1.81,1.81z" fill="#929493" id="svg_61"/>
    <path d="m144.38,18.18c0,1 0.81,1.81 1.81,1.81c1,0 1.81,-0.81 1.81,-1.81c0,-1 -0.81,-1.81 -1.81,-1.81c-1,0 -1.81,0.81 -1.81,1.81z" fill="#929493" id="svg_62"/>
    <path d="m164.34,18.18c0,1 0.81,1.81 1.81,1.81c1,0 1.81,-0.81 1.81,-1.81c0,-1 -0.81,-1.81 -1.81,-1.81c-1,0 -1.81,0.81 -1.81,1.81z" fill="#929493" id="svg_63"/>
    <path d="m184.3,18.18c0,1 0.81,1.81 1.81,1.81c1,0 1.81,-0.81 1.81,-1.81c0,-1 -0.81,-1.81 -1.81,-1.81c-1,0 -1.81,0.81 -1.81,1.81z" fill="#929493" id="svg_64"/>
    <path d="m204.26,18.18c0,1 0.81,1.81 1.81,1.81c1,0 1.81,-0.81 1.81,-1.81c0,-1 -0.81,-1.81 -1.81,-1.81c-1,0 -1.81,0.81 -1.81,1.81z" fill="#929493" id="svg_65"/>
    <path d="m224.22,18.18c0,1 0.81,1.81 1.81,1.81c1,0 1.81,-0.81 1.81,-1.81c0,-1 -0.81,-1.81 -1.81,-1.81c-1,0 -1.81,0.81 -1.81,1.81z" fill="#929493" id="svg_66"/>
    <path d="m244.18,18.18c0,1 0.81,1.81 1.81,1.81c1,0 1.81,-0.81 1.81,-1.81c0,-1 -0.81,-1.81 -1.81,-1.81c-1,0 -1.81,0.81 -1.81,1.81z" fill="#929493" id="svg_67"/>
    <path d="m264.14,18.18c0,1 0.81,1.81 1.81,1.81c1,0 1.81,-0.81 1.81,-1.81c0,-1 -0.81,-1.81 -1.81,-1.81c-1,0 -1.81,0.81 -1.81,1.81z" fill="#929493" id="svg_68"/>
    <path d="m284.09,18.18c0,1 0.81,1.81 1.81,1.81c1,0 1.81,-0.81 1.81,-1.81c0,-1 -0.81,-1.81 -1.81,-1.81c-1,0 -1.81,0.81 -1.81,1.81z" fill="#929493" id="svg_69"/>
    <path d="m304.05,18.18c0,1 0.81,1.81 1.81,1.81c1,0 1.81,-0.81 1.81,-1.81c0,-1 -0.81,-1.81 -1.81,-1.81c-1,0 -1.81,0.81 -1.81,1.81z" fill="#929493" id="svg_70"/>
    <path d="m64.54,35.18c0,1 0.81,1.81 1.81,1.81c1,0 1.81,-0.81 1.81,-1.81c0,-1 -0.81,-1.81 -1.81,-1.81c-1,0 -1.81,0.81 -1.81,1.81z" fill="#929493" id="svg_71"/>
    <path d="m84.5,35.18c0,1 0.81,1.81 1.81,1.81c1,0 1.81,-0.81 1.81,-1.81c0,-1 -0.81,-1.81 -1.81,-1.81c-1,0 -1.81,0.81 -1.81,1.81z" fill="#929493" id="svg_72"/>
    <path d="m104.46,35.18c0,1 0.81,1.81 1.81,1.81c1,0 1.81,-0.81 1.81,-1.81c0,-1 -0.81,-1.81 -1.81,-1.81c-1,0 -1.81,0.81 -1.81,1.81z" fill="#929493" id="svg_73"/>
    <path d="m124.42,35.18c0,1 0.81,1.81 1.81,1.81c1,0 1.81,-0.81 1.81,-1.81c0,-1 -0.81,-1.81 -1.81,-1.81c-1,0 -1.81,0.81 -1.81,1.81z" fill="#929493" id="svg_74"/>
    <path d="m144.38,35.18c0,1 0.81,1.81 1.81,1.81c1,0 1.81,-0.81 1.81,-1.81c0,-1 -0.81,-1.81 -1.81,-1.81c-1,0 -1.81,0.81 -1.81,1.81z" fill="#929493" id="svg_75"/>
    <path d="m164.34,35.18c0,1 0.81,1.81 1.81,1.81c1,0 1.81,-0.81 1.81,-1.81c0,-1 -0.81,-1.81 -1.81,-1.81c-1,0 -1.81,0.81 -1.81,1.81z" fill="#929493" id="svg_76"/>
    <path d="m184.3,35.18c0,1 0.81,1.81 1.81,1.81c1,0 1.81,-0.81 1.81,-1.81c0,-1 -0.81,-1.81 -1.81,-1.81c-1,0 -1.81,0.81 -1.81,1.81z" fill="#929493" id="svg_77"/>
    <path d="m204.26,35.18c0,1 0.81,1.81 1.81,1.81c1,0 1.81,-0.81 1.81,-1.81c0,-1 -0.81,-1.81 -1.81,-1.81c-1,0 -1.81,0.81 -1.81,1.81z" fill="#929493" id="svg_78"/>
    <path d="m224.22,35.18c0,1 0.81,1.81 1.81,1.81c1,0 1.81,-0.81 1.81,-1.81c0,-1 -0.81,-1.81 -1.81,-1.81c-1,0 -1.81,0.81 -1.81,1.81z" fill="#929493" id="svg_79"/>
    <path d="m244.18,35.18c0,1 0.81,1.81 1.81,1.81c1,0 1.81,-0.81 1.81,-1.81c0,-1 -0.81,-1.81 -1.81,-1.81c-1,0 -1.81,0.81 -1.81,1.81z" fill="#929493" id="svg_80"/>
    <path d="m264.14,35.18c0,1 0.81,1.81 1.81,1.81c1,0 1.81,-0.81 1.81,-1.81c0,-1 -0.81,-1.81 -1.81,-1.81c-1,0 -1.81,0.81 -1.81,1.81z" fill="#929493" id="svg_81"/>
    <path d="m284.09,35.18c0,1 0.81,1.81 1.81,1.81c1,0 1.81,-0.81 1.81,-1.81c0,-1 -0.81,-1.81 -1.81,-1.81c-1,0 -1.81,0.81 -1.81,1.81z" fill="#929493" id="svg_82"/>
    <path d="m304.05,35.18c0,1 0.81,1.81 1.81,1.81c1,0 1.81,-0.81 1.81,-1.81c0,-1 -0.81,-1.81 -1.81,-1.81c-1,0 -1.81,0.81 -1.81,1.81z" fill="#929493" id="svg_83"/>
    <path d="m64.54,52.19c0,1 0.81,1.81 1.81,1.81c1,0 1.81,-0.81 1.81,-1.81c0,-1 -0.81,-1.81 -1.81,-1.81c-1,0 -1.81,0.81 -1.81,1.81z" fill="#929493" id="svg_84"/>
    <path d="m84.5,52.19c0,1 0.81,1.81 1.81,1.81c1,0 1.81,-0.81 1.81,-1.81c0,-1 -0.81,-1.81 -1.81,-1.81c-1,0 -1.81,0.81 -1.81,1.81z" fill="#929493" id="svg_85"/>
    <path d="m104.46,52.19c0,1 0.81,1.81 1.81,1.81c1,0 1.81,-0.81 1.81,-1.81c0,-1 -0.81,-1.81 -1.81,-1.81c-1,0 -1.81,0.81 -1.81,1.81z" fill="#929493" id="svg_86"/>
    <path d="m124.42,52.19c0,1 0.81,1.81 1.81,1.81c1,0 1.81,-0.81 1.81,-1.81c0,-1 -0.81,-1.81 -1.81,-1.81c-1,0 -1.81,0.81 -1.81,1.81z" fill="#929493" id="svg_87"/>
    <path d="m144.38,52.19c0,1 0.81,1.81 1.81,1.81c1,0 1.81,-0.81 1.81,-1.81c0,-1 -0.81,-1.81 -1.81,-1.81c-1,0 -1.81,0.81 -1.81,1.81z" fill="#929493" id="svg_88"/>
    <path d="m164.34,52.19c0,1 0.81,1.81 1.81,1.81c1,0 1.81,-0.81 1.81,-1.81c0,-1 -0.81,-1.81 -1.81,-1.81c-1,0 -1.81,0.81 -1.81,1.81z" fill="#929493" id="svg_89"/>
    <path d="m184.3,52.19c0,1 0.81,1.81 1.81,1.81c1,0 1.81,-0.81 1.81,-1.81c0,-1 -0.81,-1.81 -1.81,-1.81c-1,0 -1.81,0.81 -1.81,1.81z" fill="#929493" id="svg_90"/>
    <path d="m204.26,52.19c0,1 0.81,1.81 1.81,1.81c1,0 1.81,-0.81 1.81,-1.81c0,-1 -0.81,-1.81 -1.81,-1.81c-1,0 -1.81,0.81 -1.81,1.81z" fill="#929493" id="svg_91"/>
    <path d="m224.22,52.19c0,1 0.81,1.81 1.81,1.81c1,0 1.81,-0.81 1.81,-1.81c0,-1 -0.81,-1.81 -1.81,-1.81c-1,0 -1.81,0.81 -1.81,1.81z" fill="#929493" id="svg_92"/>
    <path d="m244.18,52.19c0,1 0.81,1.81 1.81,1.81c1,0 1.81,-0.81 1.81,-1.81c0,-1 -0.81,-1.81 -1.81,-1.81c-1,0 -1.81,0.81 -1.81,1.81z" fill="#929493" id="svg_93"/>
    <path d="m264.14,52.19c0,1 0.81,1.81 1.81,1.81c1,0 1.81,-0.81 1.81,-1.81c0,-1 -0.81,-1.81 -1.81,-1.81c-1,0 -1.81,0.81 -1.81,1.81z" fill="#929493" id="svg_94"/>
    <path d="m284.09,52.19c0,1 0.81,1.81 1.81,1.81c1,0 1.81,-0.81 1.81,-1.81c0,-1 -0.81,-1.81 -1.81,-1.81c-1,0 -1.81,0.81 -1.81,1.81z" fill="#929493" id="svg_95"/>
    <path d="m304.05,52.19c0,1 0.81,1.81 1.81,1.81c1,0 1.81,-0.81 1.81,-1.81c0,-1 -0.81,-1.81 -1.81,-1.81c-1,0 -1.81,0.81 -1.81,1.81z" fill="#929493" id="svg_96"/>
    <path d="m64.54,69.19c0,1 0.81,1.81 1.81,1.81c1,0 1.81,-0.81 1.81,-1.81c0,-1 -0.81,-1.81 -1.81,-1.81c-1,0 -1.81,0.81 -1.81,1.81z" fill="#929493" id="svg_97"/>
    <path d="m84.5,69.19c0,1 0.81,1.81 1.81,1.81c1,0 1.81,-0.81 1.81,-1.81c0,-1 -0.81,-1.81 -1.81,-1.81c-1,0 -1.81,0.81 -1.81,1.81z" fill="#929493" id="svg_98"/>
    <path d="m104.46,69.19c0,1 0.81,1.81 1.81,1.81c1,0 1.81,-0.81 1.81,-1.81c0,-1 -0.81,-1.81 -1.81,-1.81c-1,0 -1.81,0.81 -1.81,1.81z" fill="#929493" id="svg_99"/>
    <path d="m124.42,69.19c0,1 0.81,1.81 1.81,1.81c1,0 1.81,-0.81 1.81,-1.81c0,-1 -0.81,-1.81 -1.81,-1.81c-1,0 -1.81,0.81 -1.81,1.81z" fill="#929493" id="svg_100"/>
    <path d="m144.38,69.19c0,1 0.81,1.81 1.81,1.81c1,0 1.81,-0.81 1.81,-1.81c0,-1 -0.81,-1.81 -1.81,-1.81c-1,0 -1.81,0.81 -1.81,1.81z" fill="#929493" id="svg_101"/>
    <path d="m164.34,69.19c0,1 0.81,1.81 1.81,1.81c1,0 1.81,-0.81 1.81,-1.81c0,-1 -0.81,-1.81 -1.81,-1.81c-1,0 -1.81,0.81 -1.81,1.81z" fill="#929493" id="svg_102"/>
    <path d="m184.3,69.19c0,1 0.81,1.81 1.81,1.81c1,0 1.81,-0.81 1.81,-1.81c0,-1 -0.81,-1.81 -1.81,-1.81c-1,0 -1.81,0.81 -1.81,1.81z" fill="#929493" id="svg_103"/>
    <path d="m204.26,69.19c0,1 0.81,1.81 1.81,1.81c1,0 1.81,-0.81 1.81,-1.81c0,-1 -0.81,-1.81 -1.81,-1.81c-1,0 -1.81,0.81 -1.81,1.81z" fill="#929493" id="svg_104"/>
    <path d="m224.22,69.19c0,1 0.81,1.81 1.81,1.81c1,0 1.81,-0.81 1.81,-1.81c0,-1 -0.81,-1.81 -1.81,-1.81c-1,0 -1.81,0.81 -1.81,1.81z" fill="#929493" id="svg_105"/>
    <path d="m244.18,69.19c0,1 0.81,1.81 1.81,1.81c1,0 1.81,-0.81 1.81,-1.81c0,-1 -0.81,-1.81 -1.81,-1.81c-1,0 -1.81,0.81 -1.81,1.81z" fill="#929493" id="svg_106"/>
    <path d="m264.14,69.19c0,1 0.81,1.81 1.81,1.81c1,0 1.81,-0.81 1.81,-1.81c0,-1 -0.81,-1.81 -1.81,-1.81c-1,0 -1.81,0.81 -1.81,1.81z" fill="#929493" id="svg_107"/>
    <path d="m284.09,69.19c0,1 0.81,1.81 1.81,1.81c1,0 1.81,-0.81 1.81,-1.81c0,-1 -0.81,-1.81 -1.81,-1.81c-1,0 -1.81,0.81 -1.81,1.81z" fill="#929493" id="svg_108"/>
    <path d="m304.05,69.19c0,1 0.81,1.81 1.81,1.81c1,0 1.81,-0.81 1.81,-1.81c0,-1 -0.81,-1.81 -1.81,-1.81c-1,0 -1.81,0.81 -1.81,1.81z" fill="#929493" id="svg_109"/>
    <path d="m64.54,86.2c0,1 0.81,1.81 1.81,1.81c1,0 1.81,-0.81 1.81,-1.81c0,-1 -0.81,-1.81 -1.81,-1.81c-1,0 -1.81,0.81 -1.81,1.81z" fill="#929493" id="svg_110"/>
    <path d="m84.5,86.2c0,1 0.81,1.81 1.81,1.81c1,0 1.81,-0.81 1.81,-1.81c0,-1 -0.81,-1.81 -1.81,-1.81c-1,0 -1.81,0.81 -1.81,1.81z" fill="#929493" id="svg_111"/>
    <path d="m104.46,86.2c0,1 0.81,1.81 1.81,1.81c1,0 1.81,-0.81 1.81,-1.81c0,-1 -0.81,-1.81 -1.81,-1.81c-1,0 -1.81,0.81 -1.81,1.81z" fill="#929493" id="svg_112"/>
    <path d="m126.23,88.01c1,0 1.81,-0.81 1.81,-1.81c0,-1 -0.81,-1.81 -1.81,-1.81c-1,0 -1.81,0.81 -1.81,1.81c0,1 0.81,1.81 1.81,1.81z" fill="#929493" id="svg_113"/>
    <path d="m146.19,88.01c1,0 1.81,-0.81 1.81,-1.81c0,-1 -0.81,-1.81 -1.81,-1.81c-1,0 -1.81,0.81 -1.81,1.81c0,1 0.81,1.81 1.81,1.81z" fill="#929493" id="svg_114"/>
    <path d="m166.15,88.01c1,0 1.81,-0.81 1.81,-1.81c0,-1 -0.81,-1.81 -1.81,-1.81c-1,0 -1.81,0.81 -1.81,1.81c0,1 0.81,1.81 1.81,1.81z" fill="#929493" id="svg_115"/>
    <path d="m184.3,86.2c0,1 0.81,1.81 1.81,1.81c1,0 1.81,-0.81 1.81,-1.81c0,-1 -0.81,-1.81 -1.81,-1.81c-1,0 -1.81,0.81 -1.81,1.81z" fill="#929493" id="svg_116"/>
    <path d="m204.26,86.2c0,1 0.81,1.81 1.81,1.81c1,0 1.81,-0.81 1.81,-1.81c0,-1 -0.81,-1.81 -1.81,-1.81c-1,0 -1.81,0.81 -1.81,1.81z" fill="#929493" id="svg_117"/>
    <path d="m224.22,86.2c0,1 0.81,1.81 1.81,1.81c1,0 1.81,-0.81 1.81,-1.81c0,-1 -0.81,-1.81 -1.81,-1.81c-1,0 -1.81,0.81 -1.81,1.81z" fill="#929493" id="svg_118"/>
    <path d="m244.18,86.2c0,1 0.81,1.81 1.81,1.81c1,0 1.81,-0.81 1.81,-1.81c0,-1 -0.81,-1.81 -1.81,-1.81c-1,0 -1.81,0.81 -1.81,1.81z" fill="#929493" id="svg_119"/>
    <path d="m264.14,86.2c0,1 0.81,1.81 1.81,1.81c1,0 1.81,-0.81 1.81,-1.81c0,-1 -0.81,-1.81 -1.81,-1.81c-1,0 -1.81,0.81 -1.81,1.81z" fill="#929493" id="svg_120"/>
    <path d="m284.09,86.2c0,1 0.81,1.81 1.81,1.81c1,0 1.81,-0.81 1.81,-1.81c0,-1 -0.81,-1.81 -1.81,-1.81c-1,0 -1.81,0.81 -1.81,1.81z" fill="#929493" id="svg_121"/>
    <path d="m304.05,86.2c0,1 0.81,1.81 1.81,1.81c1,0 1.81,-0.81 1.81,-1.81c0,-1 -0.81,-1.81 -1.81,-1.81c-1,0 -1.81,0.81 -1.81,1.81z" fill="#929493" id="svg_122"/>
    <path d="m64.54,103.21c0,1 0.81,1.81 1.81,1.81c1,0 1.81,-0.81 1.81,-1.81c0,-1 -0.81,-1.81 -1.81,-1.81c-1,0 -1.81,0.81 -1.81,1.81z" fill="#929493" id="svg_123"/>
    <path d="m84.5,103.21c0,1 0.81,1.81 1.81,1.81c1,0 1.81,-0.81 1.81,-1.81c0,-1 -0.81,-1.81 -1.81,-1.81c-1,0 -1.81,0.81 -1.81,1.81z" fill="#929493" id="svg_124"/>
    <path d="m104.46,103.21c0,1 0.81,1.81 1.81,1.81c1,0 1.81,-0.81 1.81,-1.81c0,-1 -0.81,-1.81 -1.81,-1.81c-1,0 -1.81,0.81 -1.81,1.81z" fill="#929493" id="svg_125"/>
    <path d="m124.42,103.21c0,1 0.81,1.81 1.81,1.81c1,0 1.81,-0.81 1.81,-1.81c0,-1 -0.81,-1.81 -1.81,-1.81c-1,0 -1.81,0.81 -1.81,1.81z" fill="#929493" id="svg_126"/>
    <path d="m144.38,103.21c0,1 0.81,1.81 1.81,1.81c1,0 1.81,-0.81 1.81,-1.81c0,-1 -0.81,-1.81 -1.81,-1.81c-1,0 -1.81,0.81 -1.81,1.81z" fill="#929493" id="svg_127"/>
    <path d="m164.34,103.21c0,1 0.81,1.81 1.81,1.81c1,0 1.81,-0.81 1.81,-1.81c0,-1 -0.81,-1.81 -1.81,-1.81c-1,0 -1.81,0.81 -1.81,1.81z" fill="#929493" id="svg_128"/>
    <path d="m184.3,103.21c0,1 0.81,1.81 1.81,1.81c1,0 1.81,-0.81 1.81,-1.81c0,-1 -0.81,-1.81 -1.81,-1.81c-1,0 -1.81,0.81 -1.81,1.81z" fill="#929493" id="svg_129"/>
    <path d="m204.26,103.21c0,1 0.81,1.81 1.81,1.81c1,0 1.81,-0.81 1.81,-1.81c0,-1 -0.81,-1.81 -1.81,-1.81c-1,0 -1.81,0.81 -1.81,1.81z" fill="#929493" id="svg_130"/>
    <path d="m224.22,103.21c0,1 0.81,1.81 1.81,1.81c1,0 1.81,-0.81 1.81,-1.81c0,-1 -0.81,-1.81 -1.81,-1.81c-1,0 -1.81,0.81 -1.81,1.81z" fill="#929493" id="svg_131"/>
    <path d="m244.18,103.21c0,1 0.81,1.81 1.81,1.81c1,0 1.81,-0.81 1.81,-1.81c0,-1 -0.81,-1.81 -1.81,-1.81c-1,0 -1.81,0.81 -1.81,1.81z" fill="#929493" id="svg_132"/>
    <path d="m264.14,103.21c0,1 0.81,1.81 1.81,1.81c1,0 1.81,-0.81 1.81,-1.81c0,-1 -0.81,-1.81 -1.81,-1.81c-1,0 -1.81,0.81 -1.81,1.81z" fill="#929493" id="svg_133"/>
    <path d="m284.09,103.21c0,1 0.81,1.81 1.81,1.81c1,0 1.81,-0.81 1.81,-1.81c0,-1 -0.81,-1.81 -1.81,-1.81c-1,0 -1.81,0.81 -1.81,1.81z" fill="#929493" id="svg_134"/>
    <path d="m304.05,103.21c0,1 0.81,1.81 1.81,1.81c1,0 1.81,-0.81 1.81,-1.81c0,-1 -0.81,-1.81 -1.81,-1.81c-1,0 -1.81,0.81 -1.81,1.81z" fill="#929493" id="svg_135"/>
    <path d="m652.6,467.97c0.6,0 1.09,0.49 1.09,1.09c0,0.6 -0.49,1.09 -1.09,1.09c-0.6,0 -1.09,-0.49 -1.09,-1.09c0,-0.6 0.49,-1.09 1.09,-1.09z" fill="#F2F2F2" id="svg_136"/>
    <path d="m652.6,487.93c0.6,0 1.09,0.49 1.09,1.09c0,0.6 -0.49,1.09 -1.09,1.09c-0.6,0 -1.09,-0.49 -1.09,-1.09c0,-0.6 0.49,-1.09 1.09,-1.09z" fill="#F2F2F2" id="svg_137"/>
    <path d="m635.59,467.97c0.6,0 1.09,0.49 1.09,1.09c0,0.6 -0.49,1.09 -1.09,1.09c-0.6,0 -1.09,-0.49 -1.09,-1.09c0,-0.6 0.49,-1.09 1.09,-1.09z" fill="#F2F2F2" id="svg_138"/>
    <path d="m635.59,487.93c0.6,0 1.09,0.49 1.09,1.09c0,0.6 -0.49,1.09 -1.09,1.09c-0.6,0 -1.09,-0.49 -1.09,-1.09c0,-0.6 0.49,-1.09 1.09,-1.09z" fill="#F2F2F2" id="svg_139"/>
    <path d="m618.59,467.97c0.6,0 1.09,0.49 1.09,1.09c0,0.6 -0.49,1.09 -1.09,1.09c-0.6,0 -1.09,-0.49 -1.09,-1.09c0,-0.6 0.49,-1.09 1.09,-1.09z" fill="#F2F2F2" id="svg_140"/>
    <path d="m618.59,487.93c0.6,0 1.09,0.49 1.09,1.09c0,0.6 -0.49,1.09 -1.09,1.09c-0.6,0 -1.09,-0.49 -1.09,-1.09c0,-0.6 0.49,-1.09 1.09,-1.09z" fill="#F2F2F2" id="svg_141"/>
    <path d="m601.58,467.97c0.6,0 1.09,0.49 1.09,1.09c0,0.6 -0.49,1.09 -1.09,1.09c-0.6,0 -1.09,-0.49 -1.09,-1.09c0,-0.6 0.49,-1.09 1.09,-1.09z" fill="#F2F2F2" id="svg_142"/>
    <path d="m601.58,487.93c0.6,0 1.09,0.49 1.09,1.09c0,0.6 -0.49,1.09 -1.09,1.09c-0.6,0 -1.09,-0.49 -1.09,-1.09c0,-0.6 0.49,-1.09 1.09,-1.09z" fill="#F2F2F2" id="svg_143"/>
    <path d="m584.57,467.97c0.6,0 1.09,0.49 1.09,1.09c0,0.6 -0.49,1.09 -1.09,1.09c-0.6,0 -1.09,-0.49 -1.09,-1.09c0,-0.6 0.49,-1.09 1.09,-1.09z" fill="#F2F2F2" id="svg_144"/>
    <path d="m584.57,487.93c0.6,0 1.09,0.49 1.09,1.09c0,0.6 -0.49,1.09 -1.09,1.09c-0.6,0 -1.09,-0.49 -1.09,-1.09c0,-0.6 0.49,-1.09 1.09,-1.09z" fill="#F2F2F2" id="svg_145"/>
    <path d="m737.63,248.42c0.6,0 1.09,0.49 1.09,1.09c0,0.6 -0.49,1.09 -1.09,1.09c-0.6,0 -1.09,-0.49 -1.09,-1.09c0,-0.6 0.49,-1.09 1.09,-1.09z" fill="#F2F2F2" id="svg_146"/>
    <path d="m737.63,268.38c0.6,0 1.09,0.49 1.09,1.09c0,0.6 -0.49,1.09 -1.09,1.09c-0.6,0 -1.09,-0.49 -1.09,-1.09c0,-0.6 0.49,-1.09 1.09,-1.09z" fill="#F2F2F2" id="svg_147"/>
    <path d="m737.63,288.34c0.6,0 1.09,0.49 1.09,1.09c0,0.6 -0.49,1.09 -1.09,1.09c-0.6,0 -1.09,-0.49 -1.09,-1.09c0,-0.6 0.49,-1.09 1.09,-1.09z" fill="#F2F2F2" id="svg_148"/>
    <path d="m737.63,308.3c0.6,0 1.09,0.49 1.09,1.09c0,0.6 -0.49,1.09 -1.09,1.09c-0.6,0 -1.09,-0.49 -1.09,-1.09c0,-0.6 0.49,-1.09 1.09,-1.09z" fill="#F2F2F2" id="svg_149"/>
    <path d="m737.63,328.26c0.6,0 1.09,0.49 1.09,1.09c0,0.6 -0.49,1.09 -1.09,1.09c-0.6,0 -1.09,-0.49 -1.09,-1.09c0,-0.6 0.49,-1.09 1.09,-1.09z" fill="#F2F2F2" id="svg_150"/>
    <path d="m737.63,348.22c0.6,0 1.09,0.49 1.09,1.09c0,0.6 -0.49,1.09 -1.09,1.09c-0.6,0 -1.09,-0.49 -1.09,-1.09c0,-0.6 0.49,-1.09 1.09,-1.09z" fill="#F2F2F2" id="svg_151"/>
    <path d="m737.63,368.18c0.6,0 1.09,0.49 1.09,1.09c0,0.6 -0.49,1.09 -1.09,1.09c-0.6,0 -1.09,-0.49 -1.09,-1.09c0,-0.6 0.49,-1.09 1.09,-1.09z" fill="#F2F2F2" id="svg_152"/>
    <path d="m737.63,388.14c0.6,0 1.09,0.49 1.09,1.09c0,0.6 -0.49,1.09 -1.09,1.09c-0.6,0 -1.09,-0.49 -1.09,-1.09c0,-0.6 0.49,-1.09 1.09,-1.09z" fill="#F2F2F2" id="svg_153"/>
    <path d="m737.63,408.1c0.6,0 1.09,0.49 1.09,1.09c0,0.6 -0.49,1.09 -1.09,1.09c-0.6,0 -1.09,-0.49 -1.09,-1.09c0,-0.6 0.49,-1.09 1.09,-1.09z" fill="#F2F2F2" id="svg_154"/>
    <path d="m737.63,428.05c0.6,0 1.09,0.49 1.09,1.09c0,0.6 -0.49,1.09 -1.09,1.09c-0.6,0 -1.09,-0.49 -1.09,-1.09c0,-0.6 0.49,-1.09 1.09,-1.09z" fill="#F2F2F2" id="svg_155"/>
    <path d="m737.63,448.01c0.6,0 1.09,0.49 1.09,1.09c0,0.6 -0.49,1.09 -1.09,1.09c-0.6,0 -1.09,-0.49 -1.09,-1.09c0,-0.6 0.49,-1.09 1.09,-1.09z" fill="#F2F2F2" id="svg_156"/>
    <path d="m737.63,467.97c0.6,0 1.09,0.49 1.09,1.09c0,0.6 -0.49,1.09 -1.09,1.09c-0.6,0 -1.09,-0.49 -1.09,-1.09c0,-0.6 0.49,-1.09 1.09,-1.09z" fill="#F2F2F2" id="svg_157"/>
    <path d="m737.63,487.93c0.6,0 1.09,0.49 1.09,1.09c0,0.6 -0.49,1.09 -1.09,1.09c-0.6,0 -1.09,-0.49 -1.09,-1.09c0,-0.6 0.49,-1.09 1.09,-1.09z" fill="#383838" id="svg_158"/>
    <path d="m720.62,250.59c0.6,0 1.09,-0.49 1.09,-1.09c0,-0.6 -0.49,-1.09 -1.09,-1.09c-0.6,0 -1.09,0.49 -1.09,1.09c0,0.6 0.49,1.09 1.09,1.09z" fill="#F2F2F2" id="svg_159"/>
    <path d="m720.62,268.38c0.6,0 1.09,0.49 1.09,1.09c0,0.6 -0.49,1.09 -1.09,1.09c-0.6,0 -1.09,-0.49 -1.09,-1.09c0,-0.6 0.49,-1.09 1.09,-1.09z" fill="#F2F2F2" id="svg_160"/>
    <path d="m720.62,288.34c0.6,0 1.09,0.49 1.09,1.09c0,0.6 -0.49,1.09 -1.09,1.09c-0.6,0 -1.09,-0.49 -1.09,-1.09c0,-0.6 0.49,-1.09 1.09,-1.09z" fill="#F2F2F2" id="svg_161"/>
    <path d="m720.62,308.3c0.6,0 1.09,0.49 1.09,1.09c0,0.6 -0.49,1.09 -1.09,1.09c-0.6,0 -1.09,-0.49 -1.09,-1.09c0,-0.6 0.49,-1.09 1.09,-1.09z" fill="#F2F2F2" id="svg_162"/>
    <path d="m720.62,330.43c0.6,0 1.09,-0.49 1.09,-1.09c0,-0.6 -0.49,-1.09 -1.09,-1.09c-0.6,0 -1.09,0.49 -1.09,1.09c0,0.6 0.49,1.09 1.09,1.09z" fill="#F2F2F2" id="svg_163"/>
    <path d="m720.62,350.39c0.6,0 1.09,-0.49 1.09,-1.09c0,-0.6 -0.49,-1.09 -1.09,-1.09c-0.6,0 -1.09,0.49 -1.09,1.09c0,0.6 0.49,1.09 1.09,1.09z" fill="#F2F2F2" id="svg_164"/>
    <path d="m720.62,370.35c0.6,0 1.09,-0.49 1.09,-1.09c0,-0.6 -0.49,-1.09 -1.09,-1.09c-0.6,0 -1.09,0.49 -1.09,1.09c0,0.6 0.49,1.09 1.09,1.09z" fill="#F2F2F2" id="svg_165"/>
    <path d="m720.62,390.31c0.6,0 1.09,-0.49 1.09,-1.09c0,-0.6 -0.49,-1.09 -1.09,-1.09c-0.6,0 -1.09,0.49 -1.09,1.09c0,0.6 0.49,1.09 1.09,1.09z" fill="#F2F2F2" id="svg_166"/>
    <path d="m720.62,410.27c0.6,0 1.09,-0.49 1.09,-1.09c0,-0.6 -0.49,-1.09 -1.09,-1.09c-0.6,0 -1.09,0.49 -1.09,1.09c0,0.6 0.49,1.09 1.09,1.09z" fill="#F2F2F2" id="svg_167"/>
    <path d="m720.62,430.23c0.6,0 1.09,-0.49 1.09,-1.09c0,-0.6 -0.49,-1.09 -1.09,-1.09c-0.6,0 -1.09,0.49 -1.09,1.09c0,0.6 0.49,1.09 1.09,1.09z" fill="#F2F2F2" id="svg_168"/>
    <path d="m720.62,450.19c0.6,0 1.09,-0.49 1.09,-1.09c0,-0.6 -0.49,-1.09 -1.09,-1.09c-0.6,0 -1.09,0.49 -1.09,1.09c0,0.6 0.49,1.09 1.09,1.09z" fill="#F2F2F2" id="svg_169"/>
    <path d="m720.62,467.97c0.6,0 1.09,0.49 1.09,1.09c0,0.6 -0.49,1.09 -1.09,1.09c-0.6,0 -1.09,-0.49 -1.09,-1.09c0,-0.6 0.49,-1.09 1.09,-1.09z" fill="#F2F2F2" id="svg_170"/>
    <path d="m720.62,487.93c0.6,0 1.09,0.49 1.09,1.09c0,0.6 -0.49,1.09 -1.09,1.09c-0.6,0 -1.09,-0.49 -1.09,-1.09c0,-0.6 0.49,-1.09 1.09,-1.09z" fill="#383838" id="svg_171"/>
    <path d="m703.62,248.42c0.6,0 1.09,0.49 1.09,1.09c0,0.6 -0.49,1.09 -1.09,1.09c-0.6,0 -1.09,-0.49 -1.09,-1.09c0,-0.6 0.49,-1.09 1.09,-1.09z" fill="#F2F2F2" id="svg_172"/>
    <path d="m703.62,268.38c0.6,0 1.09,0.49 1.09,1.09c0,0.6 -0.49,1.09 -1.09,1.09c-0.6,0 -1.09,-0.49 -1.09,-1.09c0,-0.6 0.49,-1.09 1.09,-1.09z" fill="#F2F2F2" id="svg_173"/>
    <path d="m703.62,288.34c0.6,0 1.09,0.49 1.09,1.09c0,0.6 -0.49,1.09 -1.09,1.09c-0.6,0 -1.09,-0.49 -1.09,-1.09c0,-0.6 0.49,-1.09 1.09,-1.09z" fill="#F2F2F2" id="svg_174"/>
    <path d="m703.62,308.3c0.6,0 1.09,0.49 1.09,1.09c0,0.6 -0.49,1.09 -1.09,1.09c-0.6,0 -1.09,-0.49 -1.09,-1.09c0,-0.6 0.49,-1.09 1.09,-1.09z" fill="#F2F2F2" id="svg_175"/>
    <path d="m703.62,328.26c0.6,0 1.09,0.49 1.09,1.09c0,0.6 -0.49,1.09 -1.09,1.09c-0.6,0 -1.09,-0.49 -1.09,-1.09c0,-0.6 0.49,-1.09 1.09,-1.09z" fill="#F2F2F2" id="svg_176"/>
    <path d="m703.62,348.22c0.6,0 1.09,0.49 1.09,1.09c0,0.6 -0.49,1.09 -1.09,1.09c-0.6,0 -1.09,-0.49 -1.09,-1.09c0,-0.6 0.49,-1.09 1.09,-1.09z" fill="#F2F2F2" id="svg_177"/>
    <path d="m703.62,368.18c0.6,0 1.09,0.49 1.09,1.09c0,0.6 -0.49,1.09 -1.09,1.09c-0.6,0 -1.09,-0.49 -1.09,-1.09c0,-0.6 0.49,-1.09 1.09,-1.09z" fill="#F2F2F2" id="svg_178"/>
    <path d="m703.62,388.14c0.6,0 1.09,0.49 1.09,1.09c0,0.6 -0.49,1.09 -1.09,1.09c-0.6,0 -1.09,-0.49 -1.09,-1.09c0,-0.6 0.49,-1.09 1.09,-1.09z" fill="#F2F2F2" id="svg_179"/>
    <path d="m703.62,408.1c0.6,0 1.09,0.49 1.09,1.09c0,0.6 -0.49,1.09 -1.09,1.09c-0.6,0 -1.09,-0.49 -1.09,-1.09c0,-0.6 0.49,-1.09 1.09,-1.09z" fill="#F2F2F2" id="svg_180"/>
    <path d="m703.62,428.05c0.6,0 1.09,0.49 1.09,1.09c0,0.6 -0.49,1.09 -1.09,1.09c-0.6,0 -1.09,-0.49 -1.09,-1.09c0,-0.6 0.49,-1.09 1.09,-1.09z" fill="#F2F2F2" id="svg_181"/>
    <path d="m703.62,448.01c0.6,0 1.09,0.49 1.09,1.09c0,0.6 -0.49,1.09 -1.09,1.09c-0.6,0 -1.09,-0.49 -1.09,-1.09c0,-0.6 0.49,-1.09 1.09,-1.09z" fill="#F2F2F2" id="svg_182"/>
    <path d="m703.62,467.97c0.6,0 1.09,0.49 1.09,1.09c0,0.6 -0.49,1.09 -1.09,1.09c-0.6,0 -1.09,-0.49 -1.09,-1.09c0,-0.6 0.49,-1.09 1.09,-1.09z" fill="#F2F2F2" id="svg_183"/>
    <path d="m703.62,487.93c0.6,0 1.09,0.49 1.09,1.09c0,0.6 -0.49,1.09 -1.09,1.09c-0.6,0 -1.09,-0.49 -1.09,-1.09c0,-0.6 0.49,-1.09 1.09,-1.09z" fill="#F2F2F2" id="svg_184"/>
    <path d="m686.61,467.97c0.6,0 1.09,0.49 1.09,1.09c0,0.6 -0.49,1.09 -1.09,1.09c-0.6,0 -1.09,-0.49 -1.09,-1.09c0,-0.6 0.49,-1.09 1.09,-1.09z" fill="#F2F2F2" id="svg_185"/>
    <path d="m686.61,487.93c0.6,0 1.09,0.49 1.09,1.09c0,0.6 -0.49,1.09 -1.09,1.09c-0.6,0 -1.09,-0.49 -1.09,-1.09c0,-0.6 0.49,-1.09 1.09,-1.09z" fill="#F2F2F2" id="svg_186"/>
    <path d="m669.6,467.97c0.6,0 1.09,0.49 1.09,1.09c0,0.6 -0.49,1.09 -1.09,1.09c-0.6,0 -1.09,-0.49 -1.09,-1.09c0,-0.6 0.49,-1.09 1.09,-1.09z" fill="#F2F2F2" id="svg_187"/>
    <path d="m669.6,487.93c0.6,0 1.09,0.49 1.09,1.09c0,0.6 -0.49,1.09 -1.09,1.09c-0.6,0 -1.09,-0.49 -1.09,-1.09c0,-0.6 0.49,-1.09 1.09,-1.09z" fill="#F2F2F2" id="svg_188"/>
    <path d="m567.57,467.97c0.6,0 1.09,0.49 1.09,1.09c0,0.6 -0.49,1.09 -1.09,1.09c-0.6,0 -1.09,-0.49 -1.09,-1.09c0,-0.6 0.49,-1.09 1.09,-1.09z" fill="#F2F2F2" id="svg_189"/>
    <path d="m567.57,487.93c0.6,0 1.09,0.49 1.09,1.09c0,0.6 -0.49,1.09 -1.09,1.09c-0.6,0 -1.09,-0.49 -1.09,-1.09c0,-0.6 0.49,-1.09 1.09,-1.09z" fill="#F2F2F2" id="svg_190"/>
    <path d="m595.61,72.82c-14.71,0 -26.67,11.97 -26.67,26.67c0,14.7 11.97,26.68 26.67,26.68c14.7,0 26.67,-11.97 26.67,-26.68c0,-14.71 -11.97,-26.67 -26.67,-26.67zm0,51.33c-13.59,0 -24.65,-11.06 -24.65,-24.66c0,-13.6 11.06,-24.65 24.65,-24.65c13.59,0 24.65,11.06 24.65,24.65c0,13.59 -11.06,24.66 -24.65,24.66z" fill="#F2F2F2" id="svg_191"/>
    <path d="m595.61,87.29c-6.73,0 -12.2,5.47 -12.2,12.2c0,6.73 5.47,12.2 12.2,12.2c6.73,0 12.2,-5.47 12.2,-12.2c0,-6.73 -5.47,-12.2 -12.2,-12.2zm0,22.38c-5.61,0 -10.18,-4.57 -10.18,-10.18c0,-5.61 4.57,-10.18 10.18,-10.18c5.61,0 10.18,4.57 10.18,10.18c0,5.61 -4.57,10.18 -10.18,10.18z" fill="#F2F2F2" id="svg_192"/>
    <path d="m89.9,279.95l-4.27,-6.72l-4.26,6.72l8.53,0z" fill="#929493" id="svg_193"/>
    <path d="m89.9,314.66l-4.27,-6.72l-4.26,6.72l8.53,0z" fill="#929493" id="svg_194"/>
    <path d="m89.9,198.28l-4.27,-6.71l-4.26,6.71l8.53,0z" fill="#929493" id="svg_195"/>
    <path d="m89.9,232.99l-4.27,-6.71l-4.26,6.71l8.53,0z" fill="#929493" id="svg_196"/>
    <path d="m89.9,247.7l-4.27,-6.71l-4.26,6.71l8.53,0z" fill="#929493" id="svg_197"/>
    <path d="m702.89,26.99l-6.72,4.26l6.72,4.27l0,-8.53z" fill="white" id="svg_198"/>
    <path d="m737.6,26.99l-6.72,4.26l6.72,4.27l0,-8.53z" fill="white" id="svg_199"/>
    <path d="m621.22,26.99l-6.71,4.26l6.71,4.27l0,-8.53z" fill="white" id="svg_200"/>
    <path d="m655.93,26.99l-6.71,4.26l6.71,4.27l0,-8.53z" fill="white" id="svg_201"/>
    <path d="m670.64,26.99l-6.71,4.26l6.71,4.27l0,-8.53z" fill="white" id="svg_202"/>
    <path d="m85.59,469.15c-0.91,-0.02 -1.62,-0.78 -1.59,-1.68c0.02,-0.91 0.78,-1.62 1.68,-1.6c0.9,0.02 1.61,0.78 1.59,1.69c-0.02,0.88 -0.75,1.59 -1.64,1.59l-0.04,0zm4.99,-1.69c-0.07,-0.9 0.59,-1.69 1.49,-1.77c0.9,-0.08 1.69,0.59 1.78,1.49c0.07,0.9 -0.6,1.69 -1.5,1.78l-0.14,0c-0.84,0 -1.56,-0.65 -1.63,-1.5zm-11.72,1.12c-0.9,-0.13 -1.52,-0.96 -1.39,-1.85c0.13,-0.9 0.96,-1.52 1.85,-1.39c0.89,0.12 1.51,0.95 1.39,1.85c-0.11,0.82 -0.82,1.41 -1.62,1.41c-0.07,0 -0.16,0 -0.23,-0.02zm18.25,-1.87c-0.17,-0.88 0.4,-1.75 1.28,-1.92c0.88,-0.18 1.75,0.39 1.93,1.28c0.17,0.88 -0.4,1.75 -1.28,1.93c-0.11,0.02 -0.21,0.03 -0.33,0.03c-0.76,0 -1.44,-0.54 -1.6,-1.32zm-24.88,0.53c-0.88,-0.23 -1.4,-1.12 -1.17,-2c0.23,-0.88 1.12,-1.4 2,-1.17c0.88,0.23 1.4,1.12 1.17,2c-0.2,0.74 -0.86,1.23 -1.58,1.23c-0.14,0 -0.28,-0.02 -0.42,-0.06zm31.29,-2.02c-0.28,-0.86 0.2,-1.78 1.05,-2.06c0.86,-0.28 1.78,0.2 2.06,1.06c0.28,0.86 -0.2,1.78 -1.06,2.06c-0.16,0.05 -0.34,0.07 -0.51,0.07c-0.69,0 -1.33,-0.43 -1.56,-1.13l0.02,0zm-37.74,-0.07c-0.83,-0.33 -1.25,-1.28 -0.93,-2.12c0.34,-0.84 1.28,-1.26 2.13,-0.93c0.84,0.33 1.26,1.28 0.93,2.12c-0.25,0.65 -0.87,1.05 -1.52,1.05c-0.2,0 -0.4,-0.04 -0.6,-0.11l-0.01,-0.01zm43.93,-2.14c-0.38,-0.83 -0.02,-1.79 0.81,-2.17c0.82,-0.38 1.79,-0.02 2.17,0.8c0.38,0.83 0,1.79 -0.81,2.18c-0.22,0.1 -0.45,0.15 -0.68,0.15c-0.62,0 -1.21,-0.36 -1.49,-0.96zm-50.08,-0.66c-0.8,-0.43 -1.11,-1.42 -0.69,-2.21c0.43,-0.8 1.42,-1.11 2.21,-0.69c0.8,0.43 1.11,1.42 0.69,2.21c-0.29,0.56 -0.87,0.88 -1.45,0.88c-0.26,0 -0.52,-0.06 -0.76,-0.19zm55.97,-2.24c-0.47,-0.78 -0.21,-1.78 0.56,-2.25c0.78,-0.47 1.78,-0.22 2.25,0.55c0.47,0.78 0.21,1.78 -0.56,2.25c-0.26,0.16 -0.56,0.24 -0.84,0.24c-0.56,0 -1.1,-0.28 -1.41,-0.79zm-61.77,-1.25c-0.74,-0.51 -0.93,-1.53 -0.43,-2.28c0.51,-0.75 1.53,-0.93 2.28,-0.43c0.74,0.51 0.93,1.53 0.43,2.28c-0.32,0.46 -0.83,0.71 -1.35,0.71c-0.32,0 -0.64,-0.09 -0.93,-0.29l0,0.01zm67.3,-2.32c-0.56,-0.71 -0.43,-1.74 0.29,-2.29c0.71,-0.56 1.74,-0.43 2.29,0.3c0.56,0.71 0.43,1.74 -0.29,2.29c-0.29,0.24 -0.65,0.34 -1,0.34c-0.49,0 -0.97,-0.22 -1.29,-0.64zm-72.66,-1.81c-0.69,-0.6 -0.76,-1.63 -0.16,-2.32c0.59,-0.68 1.62,-0.75 2.31,-0.16c0.68,0.59 0.75,1.63 0.16,2.31c-0.33,0.38 -0.78,0.57 -1.24,0.57c-0.38,0 -0.76,-0.13 -1.07,-0.39l0,-0.01zm77.74,-2.36c-0.63,-0.65 -0.61,-1.69 0.03,-2.32c0.65,-0.63 1.69,-0.61 2.32,0.03c0.63,0.65 0.61,1.69 -0.03,2.32c-0.32,0.31 -0.73,0.47 -1.14,0.47c-0.43,0 -0.85,-0.17 -1.18,-0.5zm-82.59,-2.36c-0.61,-0.66 -0.56,-1.7 0.1,-2.32c0.66,-0.61 1.7,-0.56 2.31,0.11c0.61,0.66 0.57,1.69 -0.09,2.31c-0.32,0.29 -0.71,0.43 -1.11,0.43c-0.44,0 -0.88,-0.18 -1.2,-0.53l-0.01,0zm87.18,-2.36c-0.7,-0.57 -0.8,-1.6 -0.23,-2.31c0.57,-0.7 1.6,-0.8 2.31,-0.23c0.7,0.57 0.8,1.6 0.23,2.31c-0.33,0.39 -0.79,0.6 -1.27,0.6c-0.36,0 -0.73,-0.12 -1.04,-0.37zm-91.46,-2.87c-0.53,-0.73 -0.38,-1.75 0.35,-2.28c0.74,-0.53 1.76,-0.38 2.29,0.36c0.53,0.73 0.37,1.75 -0.36,2.28c-0.3,0.21 -0.63,0.31 -0.97,0.31c-0.5,0 -1,-0.23 -1.32,-0.67l0.01,0zm95.48,-2.34c-0.76,-0.49 -0.97,-1.5 -0.48,-2.26c0.48,-0.76 1.5,-0.98 2.26,-0.49c0.76,0.49 0.98,1.51 0.49,2.26c-0.31,0.49 -0.84,0.75 -1.38,0.75c-0.3,0 -0.61,-0.08 -0.88,-0.26l-0.01,0zm-99.14,-3.34c-0.45,-0.79 -0.17,-1.78 0.61,-2.23c0.79,-0.45 1.78,-0.17 2.23,0.61c0.44,0.79 0.16,1.78 -0.61,2.23c-0.26,0.15 -0.54,0.22 -0.81,0.22c-0.57,0 -1.12,-0.3 -1.42,-0.84l0,0.01zm102.55,-2.29c-0.81,-0.4 -1.15,-1.37 -0.74,-2.19c0.4,-0.81 1.38,-1.14 2.19,-0.74c0.81,0.4 1.15,1.38 0.74,2.19c-0.29,0.58 -0.87,0.92 -1.47,0.92c-0.24,0 -0.48,-0.06 -0.72,-0.17l0,-0.01zm-105.55,-3.77c-0.35,-0.84 0.04,-1.79 0.87,-2.15c0.83,-0.34 1.79,0.04 2.15,0.88c0.35,0.83 -0.04,1.79 -0.88,2.14c-0.2,0.09 -0.43,0.13 -0.64,0.13c-0.63,0 -1.24,-0.38 -1.51,-1l0.01,0zm108.28,-2.22c-0.85,-0.3 -1.29,-1.24 -0.99,-2.1c0.3,-0.85 1.24,-1.29 2.1,-0.99c0.85,0.3 1.29,1.24 0.99,2.1c-0.24,0.67 -0.87,1.09 -1.54,1.09c-0.19,0 -0.37,-0.03 -0.56,-0.1zm-110.56,-4.15c-0.25,-0.87 0.24,-1.78 1.1,-2.03c0.87,-0.26 1.78,0.24 2.04,1.11c0.25,0.87 -0.25,1.78 -1.11,2.03c-0.16,0.05 -0.31,0.07 -0.46,0.07c-0.71,0 -1.36,-0.46 -1.57,-1.17l0,-0.01zm112.59,-2.11c-0.88,-0.2 -1.42,-1.08 -1.22,-1.96c0.2,-0.88 1.08,-1.42 1.96,-1.22c0.88,0.2 1.42,1.08 1.22,1.96c-0.17,0.75 -0.84,1.26 -1.59,1.26c-0.12,0 -0.25,0 -0.38,-0.04l0.01,0zm-114.12,-4.48c-0.16,-0.89 0.44,-1.74 1.33,-1.89c0.89,-0.16 1.74,0.44 1.89,1.33c0.16,0.89 -0.44,1.74 -1.33,1.89c-0.1,0.02 -0.19,0.02 -0.28,0.02c-0.79,0 -1.48,-0.57 -1.61,-1.36l0,0.01zm115.42,-1.97c-0.9,-0.1 -1.55,-0.91 -1.44,-1.81c0.1,-0.9 0.91,-1.54 1.81,-1.44c0.9,0.1 1.55,0.92 1.44,1.81c-0.09,0.83 -0.8,1.46 -1.62,1.46c-0.07,0 -0.12,0 -0.19,-0.02zm-116.2,-4.75c-0.05,-0.9 0.64,-1.67 1.55,-1.73c0.9,-0.05 1.67,0.64 1.73,1.55c0.05,0.9 -0.64,1.67 -1.54,1.73l-0.1,0c-0.86,0 -1.58,-0.67 -1.64,-1.55zm115.11,-3.44l0,-0.07l0,-0.06c0,-0.9 0.73,-1.64 1.63,-1.64c0.91,0 1.64,0.73 1.65,1.64l0,0.06l0,0.07c0,0.9 -0.74,1.64 -1.64,1.64c-0.91,0 -1.64,-0.74 -1.64,-1.64zm-113.58,-1.59c-0.9,-0.06 -1.59,-0.83 -1.54,-1.73c0.05,-0.91 0.82,-1.6 1.72,-1.55c0.91,0.05 1.6,0.83 1.55,1.73c-0.05,0.87 -0.77,1.55 -1.64,1.55l-0.09,0zm113.2,-4.91c-0.11,-0.9 0.54,-1.71 1.44,-1.82c0.9,-0.1 1.71,0.54 1.81,1.44c0.11,0.9 -0.53,1.71 -1.43,1.81c-0.07,0 -0.13,0.02 -0.19,0.02c-0.83,0 -1.53,-0.61 -1.63,-1.45zm-112.64,-1.65c-0.89,-0.16 -1.49,-1 -1.34,-1.89c0.16,-0.89 1,-1.49 1.89,-1.34c0.89,0.16 1.49,1 1.33,1.89c-0.13,0.8 -0.83,1.37 -1.61,1.37c-0.09,0 -0.18,0 -0.27,-0.02l0,-0.01zm111.55,-4.65c-0.2,-0.88 0.34,-1.76 1.23,-1.96c0.88,-0.2 1.76,0.34 1.96,1.22c0.2,0.88 -0.34,1.76 -1.22,1.96c-0.13,0.03 -0.25,0.05 -0.38,0.05c-0.75,0 -1.42,-0.52 -1.6,-1.27l0.01,0zm-110.26,-1.8c-0.87,-0.25 -1.36,-1.16 -1.11,-2.03c0.26,-0.87 1.17,-1.37 2.03,-1.11c0.88,0.25 1.37,1.16 1.12,2.03c-0.21,0.71 -0.87,1.18 -1.58,1.18c-0.15,0 -0.3,-0.02 -0.46,-0.07zm108.45,-4.32c-0.3,-0.85 0.14,-1.79 0.99,-2.1c0.85,-0.3 1.78,0.14 2.1,0.99c0.3,0.85 -0.14,1.78 -0.99,2.09c-0.18,0.07 -0.37,0.1 -0.56,0.1c-0.67,0 -1.29,-0.42 -1.54,-1.08zm-106.42,-1.94c-0.84,-0.35 -1.23,-1.31 -0.88,-2.14c0.35,-0.83 1.32,-1.23 2.14,-0.88c0.83,0.35 1.23,1.32 0.88,2.14c-0.26,0.63 -0.87,1.01 -1.51,1.01c-0.21,0 -0.43,-0.04 -0.64,-0.13l0.01,0zm103.92,-3.94c-0.4,-0.81 -0.07,-1.79 0.74,-2.19c0.81,-0.4 1.79,-0.07 2.19,0.74c0.4,0.82 0.07,1.79 -0.74,2.19c-0.24,0.12 -0.48,0.17 -0.73,0.17c-0.6,0 -1.18,-0.34 -1.47,-0.91l0.01,0zm-101.2,-2.05c-0.79,-0.45 -1.06,-1.45 -0.61,-2.24c0.44,-0.79 1.44,-1.06 2.23,-0.62c0.79,0.44 1.06,1.44 0.62,2.23c-0.3,0.54 -0.86,0.84 -1.43,0.84c-0.27,0 -0.55,-0.07 -0.8,-0.2l-0.01,-0.01zm98.04,-3.51c-0.49,-0.75 -0.27,-1.77 0.49,-2.26c0.76,-0.49 1.77,-0.27 2.26,0.48c0.49,0.76 0.28,1.78 -0.48,2.27c-0.28,0.18 -0.58,0.26 -0.88,0.26c-0.54,0 -1.06,-0.26 -1.38,-0.75l-0.01,0zm-94.63,-2.13c-0.74,-0.53 -0.9,-1.56 -0.37,-2.28c0.53,-0.74 1.56,-0.89 2.29,-0.37c0.73,0.53 0.89,1.55 0.36,2.29c-0.32,0.44 -0.82,0.67 -1.33,0.67c-0.34,0 -0.67,-0.1 -0.96,-0.31l0.01,0zm90.87,-3.03c-0.57,-0.7 -0.47,-1.73 0.23,-2.3c0.7,-0.57 1.73,-0.47 2.3,0.22c0.57,0.7 0.47,1.74 -0.22,2.31c-0.31,0.25 -0.68,0.37 -1.04,0.37c-0.47,0 -0.94,-0.2 -1.27,-0.6zm-86.86,-2.19c-0.66,-0.61 -0.71,-1.65 -0.1,-2.31c0.61,-0.67 1.65,-0.71 2.31,-0.11c0.67,0.61 0.71,1.65 0.11,2.32c-0.33,0.35 -0.77,0.53 -1.21,0.53c-0.39,0 -0.79,-0.14 -1.11,-0.43zm82.53,-2.51c-0.65,-0.62 -0.66,-1.66 -0.03,-2.31c0.62,-0.65 1.66,-0.67 2.31,-0.04c0.65,0.63 0.67,1.67 0.04,2.32c-0.32,0.33 -0.75,0.5 -1.18,0.5c-0.41,0 -0.82,-0.16 -1.14,-0.47zm-77.94,-2.2c-0.6,-0.69 -0.52,-1.72 0.16,-2.32c0.69,-0.59 1.72,-0.52 2.31,0.16c0.6,0.68 0.52,1.71 -0.16,2.31c-0.31,0.27 -0.7,0.4 -1.07,0.4c-0.46,0 -0.92,-0.19 -1.24,-0.56l0,0.01zm73.11,-1.97c-0.71,-0.55 -0.85,-1.58 -0.29,-2.29c0.55,-0.72 1.58,-0.85 2.29,-0.3c0.72,0.55 0.85,1.58 0.3,2.29c-0.33,0.43 -0.81,0.64 -1.3,0.64c-0.34,0 -0.7,-0.11 -1,-0.33l0,-0.01zm-68.02,-2.2c-0.52,-0.75 -0.33,-1.77 0.42,-2.28c0.74,-0.52 1.77,-0.33 2.28,0.42c0.51,0.74 0.32,1.77 -0.43,2.27c-0.29,0.2 -0.61,0.3 -0.93,0.3c-0.52,0 -1.03,-0.25 -1.35,-0.71l0.01,0zm62.75,-1.4c-0.77,-0.47 -1.02,-1.47 -0.56,-2.25c0.47,-0.77 1.47,-1.02 2.25,-0.56c0.77,0.47 1.02,1.47 0.56,2.25c-0.3,0.51 -0.85,0.79 -1.41,0.79c-0.29,0 -0.57,-0.08 -0.83,-0.24l-0.01,0.01zm-57.23,-2.17c-0.43,-0.8 -0.12,-1.79 0.68,-2.21c0.79,-0.43 1.78,-0.12 2.21,0.67c0.43,0.8 0.12,1.79 -0.68,2.22c-0.25,0.13 -0.51,0.19 -0.76,0.19c-0.59,0 -1.15,-0.31 -1.45,-0.87zm51.57,-0.81c-0.83,-0.38 -1.19,-1.34 -0.81,-2.17c0.38,-0.82 1.34,-1.19 2.16,-0.81c0.82,0.38 1.19,1.34 0.81,2.17c-0.28,0.61 -0.88,0.96 -1.49,0.96c-0.23,0 -0.46,-0.05 -0.68,-0.15l0.01,0zm-45.68,-2.1c-0.33,-0.84 0.09,-1.79 0.93,-2.12c0.83,-0.33 1.78,0.08 2.12,0.92c0.33,0.84 -0.09,1.79 -0.93,2.12c-0.2,0.08 -0.39,0.11 -0.6,0.11c-0.65,0 -1.27,-0.39 -1.52,-1.04l0,0.01zm39.72,-0.2c-0.86,-0.28 -1.33,-1.2 -1.06,-2.06c0.28,-0.86 1.2,-1.33 2.06,-1.06c0.86,0.28 1.33,1.2 1.06,2.06c-0.23,0.7 -0.87,1.14 -1.56,1.14c-0.16,0 -0.34,-0.02 -0.5,-0.08zm-33.52,-2.01c-0.23,-0.88 0.29,-1.77 1.16,-2c0.88,-0.24 1.77,0.29 2.01,1.16c0.23,0.88 -0.29,1.77 -1.17,2c-0.14,0.04 -0.28,0.06 -0.42,0.06c-0.73,0 -1.39,-0.49 -1.58,-1.22zm27.33,0.4c-0.88,-0.17 -1.46,-1.04 -1.29,-1.92c0.18,-0.88 1.04,-1.47 1.93,-1.28c0.88,0.18 1.46,1.04 1.28,1.92c-0.16,0.78 -0.84,1.32 -1.6,1.32c-0.11,0 -0.21,0 -0.33,-0.03l0.01,-0.01zm-20.93,-1.89c-0.12,-0.9 0.49,-1.73 1.39,-1.86c0.89,-0.13 1.73,0.49 1.85,1.39c0.13,0.89 -0.49,1.72 -1.38,1.85c-0.08,0 -0.16,0.02 -0.24,0.02c-0.8,0 -1.5,-0.59 -1.62,-1.4zm14.61,1.01c-0.9,-0.08 -1.57,-0.87 -1.5,-1.77c0.07,-0.91 0.87,-1.57 1.77,-1.5c0.9,0.07 1.57,0.87 1.5,1.77c-0.07,0.85 -0.79,1.5 -1.64,1.5l-0.13,0zm-8.08,-1.76c-0.02,-0.91 0.69,-1.66 1.59,-1.69c0.91,-0.02 1.66,0.68 1.69,1.59c0.03,0.9 -0.68,1.65 -1.59,1.69l-0.05,0c-0.88,0 -1.6,-0.7 -1.64,-1.59z" fill="#E7E7E7" id="svg_203"/>
    <path d="m534.66,0.11l-78.39,0l0,78.39l78.39,0l0,-78.39z" fill="#242424" id="svg_204"/>
    <path d="m525.16,69l-59.39,0l0,-59.39l59.39,0l0,59.39zm-58.39,-1l57.39,0l0,-57.39l-57.39,0l0,57.39z" fill="white" id="svg_205"/>
    <path d="m515.16,79l-59.39,0l0,-59.39l59.39,0l0,59.39zm-58.39,-1l57.39,0l0,-57.39l-57.39,0l0,57.39z" fill="white" id="svg_206"/>
    <path d="m709.7,552.32c-58.43,0 -105.97,-47.54 -105.97,-105.97c0,-58.43 47.54,-105.97 105.97,-105.97c58.43,0 105.97,47.54 105.97,105.97c0,58.43 -47.54,105.97 -105.97,105.97zm0,-210.94c-57.88,0 -104.97,47.09 -104.97,104.97c0,57.88 47.09,104.97 104.97,104.97c57.88,0 104.97,-47.09 104.97,-104.97c0,-57.88 -47.09,-104.97 -104.97,-104.97z" fill="white" id="svg_207"/>
    <path d="m227.84,0.11l-229.12,0l0,6.07l229.12,0l0,-6.07z" fill="white" id="svg_208"/>
    <path d="m585.63,426.13l0,15.68l-15.68,0l0,-15.68l15.68,0zm-0.75,14.93l0,-14.18l-14.18,0l0,14.18l14.18,0z" fill="#E7E7E7" id="svg_209"/>
    <path d="m570.71,411.2l0,15.68l-15.68,0l0,-15.68l15.68,0zm-0.75,14.93l0,-14.18l-14.18,0l0,14.18l14.18,0z" fill="#E7E7E7" id="svg_210"/>
    <path d="m570.71,396.27l0,15.68l-15.68,0l0,-15.68l15.68,0zm-0.75,14.93l0,-14.18l-14.18,0l0,14.18l14.18,0z" fill="#E7E7E7" id="svg_211"/>
    <path d="m555.78,411.2l0,15.68l-15.68,0l0,-15.68l15.68,0zm-0.75,14.93l0,-14.18l-14.18,0l0,14.18l14.18,0z" fill="#E7E7E7" id="svg_212"/>
    <path d="m585.63,411.2l0,15.68l-15.68,0l0,-15.68l15.68,0zm-0.75,14.93l0,-14.18l-14.18,0l0,14.18l14.18,0z" fill="#E7E7E7" id="svg_213"/>
    <path d="m585.63,396.27l0,15.68l-15.68,0l0,-15.68l15.68,0zm-0.75,14.93l0,-14.18l-14.18,0l0,14.18l14.18,0z" fill="#E7E7E7" id="svg_214"/>
    <path d="m585.63,381.35l0,15.68l-15.68,0l0,-15.68l15.68,0zm-0.75,14.93l0,-14.18l-14.18,0l0,14.18l14.18,0z" fill="#E7E7E7" id="svg_215"/>
    <path d="m570.71,426.13l0,15.68l-15.68,0l0,-15.68l15.68,0zm-0.75,14.93l0,-14.18l-14.18,0l0,14.18l14.18,0z" fill="#E7E7E7" id="svg_216"/>
    <path d="m555.78,426.13l0,15.68l-15.68,0l0,-15.68l15.68,0zm-0.75,14.93l0,-14.18l-14.18,0l0,14.18l14.18,0z" fill="#E7E7E7" id="svg_217"/>
    <path d="m540.85,426.13l0,15.68l-15.68,0l0,-15.68l15.68,0zm-0.75,14.93l0,-14.18l-14.18,0l0,14.18l14.18,0z" fill="#E7E7E7" id="svg_218"/>
    <path d="m456.37,393.22l-61.86,0l0,61.86l22.85,22.42l61.42,0l0,-61.42l-22.42,-22.85l0.01,-0.01zm20.92,23.47l0,58.25l-20.92,-20.92l0,-58.67l20.92,21.34zm-81.29,-21.98l58.87,0l0,58.87l-58.87,0l0,-58.87zm0.64,60.37l58.67,0l20.92,20.92l-58.25,0l-21.34,-20.92z" fill="#929493" id="svg_219"/>
    <path d="m293.07,466.08l20.06,-20.06l20.05,20.06l5.36,0l-25.41,-25.42l-25.41,25.42l5.35,0z" fill="#383838" id="svg_220"/>
    <path d="m278.09,443.6l0,5.35l35.04,-35.04l35.04,35.04l0,-5.35l-35.04,-35.04l-35.04,35.04z" fill="#383838" id="svg_221"/>
    <path d="m278.09,459.65l0,5.35l35.04,-35.03l35.04,35.04l0,-5.36l-35.04,-35.04l-35.04,35.04z" fill="#383838" id="svg_222"/>
    <path d="m279.2,330.11l-1.11,1.12l0,5.35l6.47,-6.47l-5.36,0z" fill="#383838" id="svg_223"/>
    <path d="m295.26,330.11l-17.17,17.17l0,5.36l22.52,-22.53l-5.35,0z" fill="#383838" id="svg_224"/>
    <path d="m309.12,466.08l4.01,-4.01l4,4.01l5.36,0l-9.36,-9.36l-9.36,9.36l5.35,0z" fill="#383838" id="svg_225"/>
    <path d="m311.31,330.11l-33.22,33.22l0,5.36l35.04,-35.04l35.04,35.04l0,-5.36l-33.23,-33.22l-3.63,0z" fill="#383838" id="svg_226"/>
    <path d="m325.64,330.11l22.53,22.53l0,-5.36l-17.17,-17.17l-5.36,0z" fill="#383838" id="svg_227"/>
    <path d="m341.7,330.11l6.47,6.47l0,-5.35l-1.12,-1.12l-5.35,0z" fill="#383838" id="svg_228"/>
    <path d="m278.09,411.49l0,5.36l35.04,-35.04l35.04,35.04l0,-5.36l-35.04,-35.04l-35.04,35.04z" fill="#383838" id="svg_229"/>
    <path d="m278.09,427.54l0,5.36l35.04,-35.04l35.04,35.04l0,-5.36l-35.04,-35.03l-35.04,35.03z" fill="#383838" id="svg_230"/>
    <path d="m278.09,379.39l0,5.35l35.04,-35.04l35.04,35.04l0,-5.35l-35.04,-35.04l-35.04,35.04z" fill="#383838" id="svg_231"/>
    <path d="m278.09,395.44l0,5.35l35.04,-35.03l35.04,35.03l0,-5.35l-35.04,-35.04l-35.04,35.04z" fill="#383838" id="svg_232"/>
    <path d="m575.46,354.17l-198.46,0l0,14.6l198.46,0l0,-14.6z" fill="#939393" id="svg_233"/>
    <path d="m439.92,487.93l-161.5,0l0,12.17l161.5,0l0,-12.17z" fill="white" id="svg_234"/>
    <path d="m425.25,330.39c2.67,0 5.34,0.83 7.83,2.49c4.34,2.89 9.33,2.89 13.67,0c4.98,-3.32 10.69,-3.32 15.67,0c4.34,2.89 9.33,2.89 13.67,0c0.41,-0.27 0.97,-0.16 1.25,0.25c0.28,0.41 0.16,0.97 -0.25,1.25c-4.98,3.32 -10.69,3.32 -15.67,0c-4.35,-2.89 -9.33,-2.89 -13.67,0c-4.98,3.32 -10.69,3.32 -15.67,0c-4.34,-2.89 -9.33,-2.89 -13.67,0c-4.98,3.32 -10.69,3.31 -15.67,0c-0.41,-0.28 -0.53,-0.83 -0.25,-1.25c0.28,-0.41 0.83,-0.52 1.25,-0.25c4.34,2.89 9.33,2.89 13.67,0c2.49,-1.66 5.16,-2.49 7.83,-2.49l0.01,0z" fill="white" id="svg_235"/>
    <path d="m425.25,344.59c2.67,0 5.34,0.83 7.83,2.49c4.34,2.89 9.33,2.89 13.67,0c4.98,-3.32 10.69,-3.32 15.67,0c4.34,2.89 9.33,2.89 13.67,0c0.41,-0.27 0.97,-0.16 1.25,0.25c0.28,0.41 0.16,0.97 -0.25,1.25c-4.98,3.32 -10.69,3.32 -15.67,0c-4.35,-2.89 -9.33,-2.89 -13.67,0c-4.98,3.32 -10.69,3.32 -15.67,0c-4.34,-2.89 -9.33,-2.89 -13.67,0c-4.98,3.32 -10.69,3.31 -15.67,0c-0.41,-0.28 -0.53,-0.83 -0.25,-1.25c0.28,-0.41 0.83,-0.52 1.25,-0.25c4.34,2.89 9.33,2.89 13.67,0c2.49,-1.66 5.16,-2.49 7.83,-2.49l0.01,0z" fill="white" id="svg_236"/>
    <path d="m425.25,358.79c2.67,0 5.34,0.83 7.83,2.49c4.34,2.89 9.33,2.89 13.67,0c4.98,-3.31 10.69,-3.31 15.67,0c4.34,2.89 9.33,2.89 13.67,0c0.41,-0.27 0.97,-0.16 1.25,0.25c0.28,0.41 0.16,0.97 -0.25,1.25c-4.98,3.32 -10.69,3.32 -15.67,0c-4.35,-2.89 -9.33,-2.89 -13.67,0c-4.98,3.32 -10.69,3.32 -15.67,0c-4.34,-2.89 -9.33,-2.89 -13.67,0c-4.98,3.32 -10.69,3.31 -15.67,0c-0.41,-0.28 -0.53,-0.83 -0.25,-1.25c0.28,-0.41 0.83,-0.52 1.25,-0.25c4.34,2.89 9.33,2.89 13.67,0c2.49,-1.66 5.16,-2.49 7.83,-2.49l0.01,0z" fill="white" id="svg_237"/>
    <path d="m425.25,372.99c2.67,0 5.34,0.83 7.83,2.49c4.34,2.89 9.33,2.89 13.67,0c4.98,-3.32 10.69,-3.32 15.67,0c4.34,2.89 9.33,2.89 13.67,0c0.41,-0.27 0.97,-0.16 1.25,0.25c0.28,0.41 0.16,0.97 -0.25,1.25c-4.98,3.32 -10.69,3.32 -15.67,0c-4.35,-2.89 -9.33,-2.89 -13.67,0c-4.98,3.32 -10.69,3.32 -15.67,0c-4.34,-2.89 -9.33,-2.89 -13.67,0c-4.98,3.32 -10.69,3.31 -15.67,0c-0.41,-0.28 -0.53,-0.83 -0.25,-1.25c0.28,-0.41 0.83,-0.52 1.25,-0.25c4.34,2.89 9.33,2.89 13.67,0c2.49,-1.66 5.16,-2.49 7.83,-2.49l0.01,0z" fill="white" id="svg_238"/>
    <path d="m529.05,268.07c-6.73,0 -12.2,5.47 -12.2,12.2c0,6.73 5.47,12.2 12.2,12.2c6.73,0 12.2,-5.47 12.2,-12.2c0,-6.73 -5.47,-12.2 -12.2,-12.2zm0,22.38c-5.61,0 -10.18,-4.57 -10.18,-10.18c0,-5.61 4.57,-10.18 10.18,-10.18c5.61,0 10.18,4.57 10.18,10.18c0,5.61 -4.57,10.18 -10.18,10.18z" fill="#F2F2F2" id="svg_239"/>
    <path d="m152.1,456.12c-6.73,0 -12.2,5.47 -12.2,12.2c0,6.73 5.47,12.2 12.2,12.2c6.73,0 12.2,-5.47 12.2,-12.2c0,-6.73 -5.47,-12.2 -12.2,-12.2zm0,22.38c-5.61,0 -10.18,-4.57 -10.18,-10.18c0,-5.61 4.57,-10.18 10.18,-10.18c5.61,0 10.18,4.57 10.18,10.18c0,5.61 -4.57,10.18 -10.18,10.18z" fill="#F2F2F2" id="svg_240"/>
    <path d="m15.1,27.1c-6.73,0 -12.2,5.47 -12.2,12.2c0,6.73 5.47,12.2 12.2,12.2c6.73,0 12.2,-5.47 12.2,-12.2c0,-6.73 -5.47,-12.2 -12.2,-12.2zm0,22.38c-5.61,0 -10.18,-4.57 -10.18,-10.18c0,-5.61 4.57,-10.18 10.18,-10.18c5.61,0 10.18,4.57 10.18,10.18c0,5.61 -4.57,10.18 -10.18,10.18z" fill="#F2F2F2" id="svg_241"/>
    <path d="m425.15,63.03c-0.49,-0.4 -0.99,-0.78 -1.49,-1.16l-83.29,83.29c0.38,0.5 0.77,1 1.16,1.49l83.62,-83.62z" fill="#939393" id="svg_242"/>
    <path d="m404.8,52.33c-0.69,-0.2 -1.39,-0.39 -2.08,-0.57l-72.45,72.45c0.18,0.7 0.37,1.39 0.57,2.08l73.96,-73.96z" fill="#939393" id="svg_243"/>
    <path d="m419.1,58.73c-0.55,-0.34 -1.11,-0.67 -1.66,-0.99l-81.18,81.18c0.32,0.56 0.65,1.11 0.99,1.66l81.85,-81.85z" fill="#939393" id="svg_244"/>
    <path d="m412.34,55.14c-0.61,-0.28 -1.23,-0.55 -1.85,-0.8l-77.64,77.64c0.26,0.62 0.52,1.24 0.8,1.85l78.69,-78.69z" fill="#939393" id="svg_245"/>
    <path d="m396.31,50.48c-0.79,-0.11 -1.58,-0.21 -2.37,-0.29l-65.25,65.25c0.08,0.79 0.18,1.58 0.29,2.37l67.32,-67.32l0.01,-0.01z" fill="#939393" id="svg_246"/>
    <path d="m429.9,67.3c-0.22,-0.22 -0.45,-0.44 -0.67,-0.65l-84.08,84.08c0.22,0.22 0.43,0.45 0.65,0.67c0.22,0.22 0.45,0.44 0.67,0.65l84.08,-84.08c-0.22,-0.22 -0.43,-0.45 -0.65,-0.67z" fill="#939393" id="svg_247"/>
    <path d="m386.55,49.89c-0.93,0.02 -1.85,0.06 -2.78,0.13l-55.25,55.25c-0.06,0.93 -0.11,1.85 -0.13,2.78l58.15,-58.15l0.01,-0.01z" fill="#939393" id="svg_248"/>
    <path d="m329.84,96.26l44.93,-44.93c-1.2,0.27 -2.39,0.58 -3.57,0.92l-40.44,40.44c-0.34,1.18 -0.65,2.37 -0.92,3.57z" fill="#939393" id="svg_249"/>
    <path d="m447.18,113.43c0.06,-0.93 0.11,-1.85 0.13,-2.78l-58.15,58.15c0.93,-0.02 1.85,-0.06 2.78,-0.13l55.25,-55.25l-0.01,0.01z" fill="#939393" id="svg_250"/>
    <path d="m447,103.25c-0.08,-0.79 -0.18,-1.58 -0.29,-2.37l-67.32,67.32c0.79,0.11 1.58,0.21 2.37,0.29l65.25,-65.25l-0.01,0.01z" fill="#939393" id="svg_251"/>
    <path d="m357.65,58.1c-4.23,2.5 -8.21,5.56 -11.85,9.19c-3.63,3.63 -6.7,7.62 -9.19,11.85l21.04,-21.04z" fill="#939393" id="svg_252"/>
    <path d="m444.95,126c0.34,-1.18 0.65,-2.37 0.92,-3.57l-44.93,44.93c1.2,-0.27 2.39,-0.58 3.57,-0.92l40.44,-40.44z" fill="#939393" id="svg_253"/>
    <path d="m418.06,160.59c4.23,-2.5 8.21,-5.56 11.85,-9.19c3.63,-3.63 6.7,-7.62 9.19,-11.85l-21.04,21.04z" fill="#939393" id="svg_254"/>
    <path d="m439.45,79.76c-0.32,-0.56 -0.65,-1.11 -0.99,-1.66l-81.85,81.85c0.55,0.34 1.11,0.67 1.66,0.99l81.18,-81.18z" fill="#939393" id="svg_255"/>
    <path d="m435.33,73.54c-0.38,-0.5 -0.77,-1 -1.16,-1.49l-83.62,83.62c0.49,0.4 0.99,0.78 1.49,1.16l83.29,-83.29z" fill="#939393" id="svg_256"/>
    <path d="m445.43,94.47c-0.18,-0.7 -0.37,-1.39 -0.57,-2.08l-73.96,73.96c0.69,0.2 1.38,0.39 2.08,0.57l72.45,-72.45z" fill="#939393" id="svg_257"/>
    <path d="m442.86,86.71c-0.26,-0.62 -0.52,-1.24 -0.8,-1.85l-78.69,78.69c0.61,0.28 1.23,0.55 1.85,0.8l77.64,-77.64z" fill="#939393" id="svg_258"/>
    <path d="m20.04,455.84c-0.25,-0.2 -0.5,-0.4 -0.76,-0.59l-42.22,42.22c0.19,0.25 0.39,0.51 0.59,0.76l42.39,-42.39z" fill="white" id="svg_259"/>
    <path d="m9.73,450.42c-0.35,-0.1 -0.7,-0.2 -1.06,-0.29l-36.72,36.72c0.09,0.35 0.19,0.71 0.29,1.06l37.49,-37.49z" fill="white" id="svg_260"/>
    <path d="m16.97,453.66c-0.28,-0.17 -0.56,-0.34 -0.84,-0.5l-41.15,41.15c0.16,0.28 0.33,0.56 0.5,0.84l41.49,-41.49z" fill="white" id="svg_261"/>
    <path d="m13.55,451.84c-0.31,-0.14 -0.62,-0.28 -0.94,-0.41l-39.36,39.36c0.13,0.31 0.27,0.63 0.41,0.94l39.89,-39.89z" fill="white" id="svg_262"/>
    <path d="m5.42,449.48c-0.4,-0.06 -0.8,-0.1 -1.2,-0.15l-33.07,33.08c0.04,0.4 0.09,0.8 0.15,1.2l34.13,-34.13l-0.01,0z" fill="white" id="svg_263"/>
    <path d="m22.45,458c-0.11,-0.11 -0.23,-0.22 -0.34,-0.33l-42.62,42.62c0.11,0.11 0.22,0.23 0.33,0.34c0.11,0.11 0.23,0.22 0.34,0.33l42.62,-42.62c-0.11,-0.11 -0.22,-0.23 -0.33,-0.34z" fill="white" id="svg_264"/>
    <path d="m0.48,449.18c-0.47,0.01 -0.94,0.03 -1.41,0.06l-28.01,28.01c-0.03,0.47 -0.05,0.94 -0.06,1.41l29.48,-29.48z" fill="white" id="svg_265"/>
    <path d="m31.21,481.39c0.03,-0.47 0.05,-0.94 0.06,-1.41l-29.48,29.48c0.47,-0.01 0.94,-0.03 1.41,-0.06l28,-28l0.01,-0.01z" fill="white" id="svg_266"/>
    <path d="m31.12,476.23c-0.04,-0.4 -0.09,-0.8 -0.15,-1.2l-34.13,34.13c0.4,0.06 0.8,0.1 1.2,0.15l33.07,-33.07l0.01,-0.01z" fill="white" id="svg_267"/>
    <path d="m30.08,487.76c0.17,-0.6 0.33,-1.2 0.47,-1.81l-22.78,22.78c0.61,-0.14 1.21,-0.29 1.81,-0.47l20.5,-20.5z" fill="white" id="svg_268"/>
    <path d="m16.45,505.29c2.14,-1.27 4.16,-2.82 6,-4.66c1.84,-1.84 3.39,-3.86 4.66,-6l-10.66,10.66z" fill="white" id="svg_269"/>
    <path d="m27.29,464.32c-0.16,-0.28 -0.33,-0.56 -0.5,-0.84l-41.49,41.49c0.28,0.17 0.56,0.34 0.84,0.5l41.15,-41.15z" fill="white" id="svg_270"/>
    <path d="m25.21,461.17c-0.19,-0.25 -0.39,-0.51 -0.59,-0.76l-42.39,42.39c0.25,0.2 0.5,0.4 0.76,0.59l42.22,-42.22z" fill="white" id="svg_271"/>
    <path d="m30.33,471.78c-0.09,-0.35 -0.19,-0.7 -0.29,-1.06l-37.49,37.49c0.35,0.1 0.7,0.2 1.06,0.29l36.73,-36.73l-0.01,0.01z" fill="white" id="svg_272"/>
    <path d="m29.02,467.84c-0.13,-0.31 -0.27,-0.63 -0.41,-0.94l-39.89,39.89c0.31,0.14 0.62,0.28 0.94,0.41l39.36,-39.36z" fill="white" id="svg_273"/>
    <path d="m242.65,369.07l-14.31,0l0,14.31l14.31,0l0,-14.31z" fill="#939393" id="svg_274"/>
    <path d="m243.15,406.32l0,15.31l-15.31,0l0,-15.31l15.31,0zm-1,14.31l0,-13.31l-13.31,0l0,13.31l13.31,0z" fill="#939393" id="svg_275"/>
    <path d="m676.43,59.16l0,14.31l14.31,0l0,-14.31l-14.31,0z" fill="#939393" id="svg_276"/>
    <path d="m713.69,58.66l15.31,0l0,15.31l-15.31,0l0,-15.31zm14.31,1l-13.31,0l0,13.31l13.31,0l0,-13.31z" fill="#939393" id="svg_277"/>
    <path d="m12.1,74.84l-2,0l0,199.55l2,0l0,-199.55z" fill="#939393" id="svg_278"/>
    <path d="m252.13,128.57l-52.21,0l0,2.18l52.21,0l0,-2.18z" fill="#939393" id="svg_279"/>
    <path d="m298.4,128.57l-12.38,0l0,2.18l12.38,0l0,-2.18z" fill="#939393" id="svg_280"/>
    <path d="m417.64,421.51l-52.21,0l0,2.18l52.21,0l0,-2.18z" fill="#939393" id="svg_281"/>
    <path d="m331.54,421.51l-12.38,0l0,2.18l12.38,0l0,-2.18z" fill="#939393" id="svg_282"/>
    <path d="m401.9,234.66c0.78,0 1.41,-0.63 1.41,-1.41c0,-0.78 -0.63,-1.41 -1.41,-1.41c-0.78,0 -1.41,0.63 -1.41,1.41c0,0.78 0.63,1.41 1.41,1.41z" fill="#939393" id="svg_283"/>
    <path d="m401.9,253.08c0.78,0 1.41,-0.63 1.41,-1.41c0,-0.78 -0.63,-1.41 -1.41,-1.41c-0.78,0 -1.41,0.63 -1.41,1.41c0,0.78 0.63,1.41 1.41,1.41z" fill="#939393" id="svg_284"/>
    <path d="m383.64,234.66c0.78,0 1.41,-0.63 1.41,-1.41c0,-0.78 -0.63,-1.41 -1.41,-1.41c-0.78,0 -1.41,0.63 -1.41,1.41c0,0.78 0.63,1.41 1.41,1.41z" fill="#939393" id="svg_285"/>
    <path d="m383.64,253.08c0.78,0 1.41,-0.63 1.41,-1.41c0,-0.78 -0.63,-1.41 -1.41,-1.41c-0.78,0 -1.41,0.63 -1.41,1.41c0,0.78 0.63,1.41 1.41,1.41z" fill="#939393" id="svg_286"/>
    <path d="m365.38,234.66c0.78,0 1.41,-0.63 1.41,-1.41c0,-0.78 -0.63,-1.41 -1.41,-1.41c-0.78,0 -1.41,0.63 -1.41,1.41c0,0.78 0.63,1.41 1.41,1.41z" fill="#939393" id="svg_287"/>
    <path d="m365.38,253.08c0.78,0 1.41,-0.63 1.41,-1.41c0,-0.78 -0.63,-1.41 -1.41,-1.41c-0.78,0 -1.41,0.63 -1.41,1.41c0,0.78 0.63,1.41 1.41,1.41z" fill="#939393" id="svg_288"/>
    <path d="m347.13,234.66c0.78,0 1.41,-0.63 1.41,-1.41c0,-0.78 -0.63,-1.41 -1.41,-1.41c-0.78,0 -1.41,0.63 -1.41,1.41c0,0.78 0.63,1.41 1.41,1.41z" fill="#939393" id="svg_289"/>
    <path d="m347.13,253.08c0.78,0 1.41,-0.63 1.41,-1.41c0,-0.78 -0.63,-1.41 -1.41,-1.41c-0.78,0 -1.41,0.63 -1.41,1.41c0,0.78 0.63,1.41 1.41,1.41z" fill="#939393" id="svg_290"/>
    <path d="m328.87,234.66c-0.78,0 -1.41,-0.63 -1.41,-1.41c0,-0.78 0.63,-1.41 1.41,-1.41c0.78,0 1.41,0.63 1.41,1.41c0,0.78 -0.63,1.41 -1.41,1.41z" fill="#939393" id="svg_291"/>
    <path d="m328.87,253.08c-0.78,0 -1.41,-0.63 -1.41,-1.41c0,-0.78 0.63,-1.41 1.41,-1.41c0.78,0 1.41,0.63 1.41,1.41c0,0.78 -0.63,1.41 -1.41,1.41z" fill="#939393" id="svg_292"/>
    <path d="m310.61,234.66c0.78,0 1.41,-0.63 1.41,-1.41c0,-0.78 -0.63,-1.41 -1.41,-1.41c-0.78,0 -1.41,0.63 -1.41,1.41c0,0.78 0.63,1.41 1.41,1.41z" fill="#939393" id="svg_293"/>
    <path d="m310.61,253.08c0.78,0 1.41,-0.63 1.41,-1.41c0,-0.78 -0.63,-1.41 -1.41,-1.41c-0.78,0 -1.41,0.63 -1.41,1.41c0,0.78 0.63,1.41 1.41,1.41z" fill="#939393" id="svg_294"/>
    <path d="m292.36,234.66c-0.78,0 -1.41,-0.63 -1.41,-1.41c0,-0.78 0.63,-1.41 1.41,-1.41c0.78,0 1.41,0.63 1.41,1.41c0,0.78 -0.63,1.41 -1.41,1.41z" fill="#939393" id="svg_295"/>
    <path d="m292.36,253.08c-0.78,0 -1.41,-0.63 -1.41,-1.41c0,-0.78 0.63,-1.41 1.41,-1.41c0.78,0 1.41,0.63 1.41,1.41c0,0.78 -0.63,1.41 -1.41,1.41z" fill="#939393" id="svg_296"/>
    <path d="m10.61,403.44c0.78,0 1.41,-0.63 1.41,-1.41c0,-0.78 -0.63,-1.41 -1.41,-1.41c-0.78,0 -1.41,0.63 -1.41,1.41c0,0.78 0.63,1.41 1.41,1.41z" fill="#939393" id="svg_297"/>
    <path d="m10.61,385.18c0.78,0 1.41,-0.63 1.41,-1.41c0,-0.78 -0.63,-1.41 -1.41,-1.41c-0.78,0 -1.41,0.63 -1.41,1.41c0,0.78 0.63,1.41 1.41,1.41z" fill="#939393" id="svg_298"/>
    <path d="m10.61,366.92c0.78,0 1.41,-0.63 1.41,-1.41c0,-0.78 -0.63,-1.41 -1.41,-1.41c-0.78,0 -1.41,0.63 -1.41,1.41c0,0.78 0.63,1.41 1.41,1.41z" fill="#939393" id="svg_299"/>
    <path d="m10.61,348.67c0.78,0 1.41,-0.63 1.41,-1.41c0,-0.78 -0.63,-1.41 -1.41,-1.41c-0.78,0 -1.41,0.63 -1.41,1.41c0,0.78 0.63,1.41 1.41,1.41z" fill="#939393" id="svg_300"/>
    <path d="m9.2,329c0,-0.78 0.63,-1.41 1.41,-1.41c0.78,0 1.41,0.63 1.41,1.41c0,0.78 -0.63,1.41 -1.41,1.41c-0.78,0 -1.41,-0.63 -1.41,-1.41z" fill="#939393" id="svg_301"/>
    <path d="m10.61,312.15c0.78,0 1.41,-0.63 1.41,-1.41c0,-0.78 -0.63,-1.41 -1.41,-1.41c-0.78,0 -1.41,0.63 -1.41,1.41c0,0.78 0.63,1.41 1.41,1.41z" fill="#939393" id="svg_302"/>
    <path d="m9.2,292.49c0,-0.78 0.63,-1.41 1.41,-1.41c0.78,0 1.41,0.63 1.41,1.41c0,0.78 -0.63,1.41 -1.41,1.41c-0.78,0 -1.41,-0.63 -1.41,-1.41z" fill="#939393" id="svg_303"/>
   </g>
  </g>
 </g>
</svg>